<svg width="372" height="117" viewBox="0 0 372 117" fill="none" xmlns="http://www.w3.org/2000/svg">
<path fill-rule="evenodd" clip-rule="evenodd" d="M25.7773 97.4526H30.1379V102.902H29.1796V98.4083H26.7356V101.489H25.7773V97.4526Z" fill="#0093C9"/>
<path fill-rule="evenodd" clip-rule="evenodd" d="M18.0377 97.9397L36.6287 105.246V119.812H0.862305V104.776L18.0377 97.9397ZM18.04 98.9678L1.82053 105.424V118.857H35.6705V105.896L18.04 98.9678Z" fill="#0093C9"/>
<path fill-rule="evenodd" clip-rule="evenodd" d="M4.84082 108.39H13.9122V116.358H4.84082V108.39ZM5.79904 109.346V115.403H12.954V109.346H5.79904Z" fill="#0093C9"/>
<path fill-rule="evenodd" clip-rule="evenodd" d="M23.4219 108.39H32.4933V116.358H23.4219V108.39ZM24.3801 109.346V115.403H31.5351V109.346H24.3801Z" fill="#0093C9"/>
<path fill-rule="evenodd" clip-rule="evenodd" d="M15.5703 108.39H21.6582V116.358H15.5703V108.39ZM16.5285 109.346V115.403H20.6999V109.346H16.5285Z" fill="#0093C9"/>
<path fill-rule="evenodd" clip-rule="evenodd" d="M50.4839 65.4248H62.8529V68.5648H68.4536V73.0654H71.6989V90.3945H70.7406V74.0211H67.4954V69.5205H61.8947V66.3805H51.4421V69.6251H45.5797V74.5968H42.4914V127.708H41.5332V73.6411H44.6215V68.6695H50.4839V65.4248Z" fill="#0093C9"/>
<path fill-rule="evenodd" clip-rule="evenodd" d="M108.585 73.7456H124.356V76.5716H130.323V128.186H112.257V127.23H129.365V77.5273H123.398V74.7013H109.543V77.8413H104.518V90.3944H103.56V76.8856H108.585V73.7456Z" fill="#0093C9"/>
<path fill-rule="evenodd" clip-rule="evenodd" d="M160.299 57.7842H171.569V58.9878H172.878V61.8662H174.658V69.6638H180.363V107.036H179.405V70.6195H173.699V62.8218H171.92V59.9435H170.611V58.7399H161.258V59.6295H159.792V63.2405H154.385V59.6295H142.519V63.5545H140.268V70.9858H133.778V127.23H142.773V128.186H132.819V70.0301H139.31V62.5988H141.561V58.6738H155.343V62.2848H158.834V58.6738H160.299V57.7842Z" fill="#A52828"/>
<path fill-rule="evenodd" clip-rule="evenodd" d="M160.614 105.983H182.248V109.28H203.185V113.637H200.254V127.139H142.294V114.108H138.996V109.385H160.614V105.983ZM161.572 106.939V110.34H139.954V113.153H143.252V126.183H199.295V112.682H202.227V110.236H181.289V106.939H161.572Z" fill="#0093C9"/>
<path fill-rule="evenodd" clip-rule="evenodd" d="M199.579 10.8601L206.796 29.5997V35.0717H210.617V40.8807H215.904V102.379H214.946V41.8364H209.659V36.0274H205.838V29.7769L199.551 13.4534L193.03 29.3635V35.5564H189.628V41.8364H184.184V110.804H183.226V40.8807H188.669V34.6008H192.072V29.1757L199.579 10.8601Z" fill="#ED7000"/>
<path fill-rule="evenodd" clip-rule="evenodd" d="M259.646 40.6814L280.076 47.9293V55.4062L283.583 58.0228V77.7823H282.625V58.5014L279.118 55.8847V48.6037L260.605 42.0357V52.0304L257.464 50.6697V77.7823H256.506V49.2126L259.646 50.5733V40.6814Z" fill="#0093C9"/>
<path fill-rule="evenodd" clip-rule="evenodd" d="M305.866 9.21924H315.67V13.0395H318.497V18.2205H321.114V22.9305H324.987V28.1115H328.913V68.2577H327.955V29.0671H324.029V23.8862H320.155V19.1762H317.538V13.9952H314.712V10.1749H306.824V14.4139H304.207V18.9145H301.119V23.8862H297.978V28.8055H293.058V84.3239H292.1V27.8498H297.02V22.9305H300.16V17.9588H303.249V13.4582H305.866V9.21924Z" fill="#ED7000"/>
<path fill-rule="evenodd" clip-rule="evenodd" d="M314.031 57.9934H321.898V62.1277H328.912V68.5647H330.587V88.5104H329.629V69.5203H327.954V63.0834H320.94V58.9491H314.989V63.4497H308.132V69.0494H305.777V127.23H321V128.186H304.818V68.0937H307.174V62.494H314.031V57.9934Z" fill="#0093C9"/>
<path fill-rule="evenodd" clip-rule="evenodd" d="M318.742 88.0327H345.506V93.018H343.464V128.186H320.522V93.5937H318.742V88.0327ZM319.7 88.9884V92.638H321.48V127.23H342.506V92.0623H344.547V88.9884H319.7Z" fill="#30AF15"/>
<path fill-rule="evenodd" clip-rule="evenodd" d="M233.108 57.9934H248.513V77.7821H247.555V58.9491H234.067V83.4864H233.108V57.9934Z" fill="#0093C9"/>
<path fill-rule="evenodd" clip-rule="evenodd" d="M221.437 37.8977H239.354V58.4714H238.396V38.8534H222.395V102.379H221.437V37.8977Z" fill="#0093C9"/>
<path fill-rule="evenodd" clip-rule="evenodd" d="M225.676 31.9316H235.114V38.3754H234.155V32.8873H226.634V38.3754H225.676V31.9316Z" fill="#0093C9"/>
<path fill-rule="evenodd" clip-rule="evenodd" d="M230.874 26.7576V32.4095H229.916V26.7576H230.874Z" fill="#0093C9"/>
<path fill-rule="evenodd" clip-rule="evenodd" d="M267.969 36.6416H272.015V45.3881H271.057V37.5973H268.927V44.2891H267.969V36.6416Z" fill="#0093C9"/>
<path fill-rule="evenodd" clip-rule="evenodd" d="M162.76 58.4714H163.718V60.9766H167.889V58.4714H168.848V61.9322H162.76V58.4714Z" fill="#A52828"/>
<path fill-rule="evenodd" clip-rule="evenodd" d="M147.282 52.0867V59.1516H146.324V52.0867H147.282Z" fill="#A52828"/>
<path fill-rule="evenodd" clip-rule="evenodd" d="M151.47 52.0867V59.1516H150.512V52.0867H151.47Z" fill="#A52828"/>
<path fill-rule="evenodd" clip-rule="evenodd" d="M191.443 107.507V52.0867H192.402V107.507H191.443Z" fill="#0093C9"/>
<path fill-rule="evenodd" clip-rule="evenodd" d="M196.469 107.507V52.0867H197.427V107.507H196.469Z" fill="#0093C9"/>
<path fill-rule="evenodd" clip-rule="evenodd" d="M201.231 107.507V52.0867H202.19V107.507H201.231Z" fill="#0093C9"/>
<path fill-rule="evenodd" clip-rule="evenodd" d="M206.204 107.507V52.0867H207.162V107.507H206.204Z" fill="#0093C9"/>
<path fill-rule="evenodd" clip-rule="evenodd" d="M206.317 29.7474H192.551V28.7917H206.317V29.7474Z" fill="#ED7000"/>
<path d="M210.766 35.0786H188.049V47.5339H210.766V35.0786Z" fill="#F6F6F6"/>
<path fill-rule="evenodd" clip-rule="evenodd" d="M187.551 34.5808H211.266V48.0314H187.551V34.5808ZM188.549 35.5762V47.0361H210.268V35.5762H188.549Z" fill="#30AF15"/>
<path fill-rule="evenodd" clip-rule="evenodd" d="M235.42 49.0582H226.155V48.1025H235.42V49.0582Z" fill="#0093C9"/>
<path fill-rule="evenodd" clip-rule="evenodd" d="M235.42 54.0299H226.155V53.0742H235.42V54.0299Z" fill="#0093C9"/>
<path fill-rule="evenodd" clip-rule="evenodd" d="M235.42 58.9491H226.155V57.9934H235.42V58.9491Z" fill="#0093C9"/>
<path fill-rule="evenodd" clip-rule="evenodd" d="M233.588 63.6593H226.103V62.7036H233.588V63.6593Z" fill="#0093C9"/>
<path fill-rule="evenodd" clip-rule="evenodd" d="M233.588 68.6307H226.103V67.675H233.588V68.6307Z" fill="#0093C9"/>
<path fill-rule="evenodd" clip-rule="evenodd" d="M233.274 73.4454H225.736V72.4897H233.274V73.4454Z" fill="#0093C9"/>
<path fill-rule="evenodd" clip-rule="evenodd" d="M233.274 78.2601H225.736V77.3044H233.274V78.2601Z" fill="#0093C9"/>
<path fill-rule="evenodd" clip-rule="evenodd" d="M233.274 83.1271H225.736V82.1714H233.274V83.1271Z" fill="#0093C9"/>
<path fill-rule="evenodd" clip-rule="evenodd" d="M233.274 87.9415H225.736V86.9858H233.274V87.9415Z" fill="#0093C9"/>
<path fill-rule="evenodd" clip-rule="evenodd" d="M233.274 92.8087H225.736V91.853H233.274V92.8087Z" fill="#0093C9"/>
<path fill-rule="evenodd" clip-rule="evenodd" d="M154.864 78.28H140.155V77.2847H154.864V78.28Z" fill="#30AF15"/>
<path fill-rule="evenodd" clip-rule="evenodd" d="M154.864 83.9841H140.155V82.9888H154.864V83.9841Z" fill="#30AF15"/>
<path fill-rule="evenodd" clip-rule="evenodd" d="M154.864 89.6885H140.155V88.6931H154.864V89.6885Z" fill="#30AF15"/>
<path fill-rule="evenodd" clip-rule="evenodd" d="M154.864 95.3928H140.155V94.3975H154.864V95.3928Z" fill="#30AF15"/>
<path fill-rule="evenodd" clip-rule="evenodd" d="M154.864 101.097H140.155V100.102H154.864V101.097Z" fill="#30AF15"/>
<path fill-rule="evenodd" clip-rule="evenodd" d="M154.864 106.802H140.155V105.806H154.864V106.802Z" fill="#30AF15"/>
<path fill-rule="evenodd" clip-rule="evenodd" d="M173.184 78.28H158.476V77.2847H173.184V78.28Z" fill="#30AF15"/>
<path fill-rule="evenodd" clip-rule="evenodd" d="M173.184 83.9841H158.476V82.9888H173.184V83.9841Z" fill="#30AF15"/>
<path fill-rule="evenodd" clip-rule="evenodd" d="M173.184 89.6885H158.476V88.6931H173.184V89.6885Z" fill="#30AF15"/>
<path fill-rule="evenodd" clip-rule="evenodd" d="M173.184 95.3928H158.476V94.3975H173.184V95.3928Z" fill="#30AF15"/>
<path fill-rule="evenodd" clip-rule="evenodd" d="M173.184 101.097H158.476V100.102H173.184V101.097Z" fill="#30AF15"/>
<path fill-rule="evenodd" clip-rule="evenodd" d="M181.768 110.34H161.093V109.385H181.768V110.34Z" fill="#0093C9"/>
<path fill-rule="evenodd" clip-rule="evenodd" d="M110.26 85.7892V83.4866H111.218V85.7892H110.26Z" fill="#0093C9"/>
<path fill-rule="evenodd" clip-rule="evenodd" d="M116.018 85.7892V83.4866H116.976V85.7892H116.018Z" fill="#0093C9"/>
<path fill-rule="evenodd" clip-rule="evenodd" d="M121.513 85.7892V83.4866H122.471V85.7892H121.513Z" fill="#0093C9"/>
<path fill-rule="evenodd" clip-rule="evenodd" d="M110.364 90.7086V88.4583H111.322V90.7086H110.364Z" fill="#0093C9"/>
<path fill-rule="evenodd" clip-rule="evenodd" d="M116.174 90.7086V88.4583H117.132V90.7086H116.174Z" fill="#0093C9"/>
<path fill-rule="evenodd" clip-rule="evenodd" d="M121.67 90.7086V88.4583H122.628V90.7086H121.67Z" fill="#0093C9"/>
<path fill-rule="evenodd" clip-rule="evenodd" d="M110.364 95.6279V93.3252H111.322V95.6279H110.364Z" fill="#0093C9"/>
<path fill-rule="evenodd" clip-rule="evenodd" d="M116.174 95.6279V93.3252H117.132V95.6279H116.174Z" fill="#0093C9"/>
<path fill-rule="evenodd" clip-rule="evenodd" d="M121.67 95.6279V93.3252H122.628V95.6279H121.67Z" fill="#0093C9"/>
<path fill-rule="evenodd" clip-rule="evenodd" d="M116.174 100.6V98.2969H117.132V100.6H116.174Z" fill="#0093C9"/>
<path fill-rule="evenodd" clip-rule="evenodd" d="M121.67 100.6V98.2969H122.628V100.6H121.67Z" fill="#0093C9"/>
<path fill-rule="evenodd" clip-rule="evenodd" d="M116.227 105.571V103.268H117.185V105.571H116.227Z" fill="#0093C9"/>
<path fill-rule="evenodd" clip-rule="evenodd" d="M121.723 105.571V103.268H122.681V105.571H121.723Z" fill="#0093C9"/>
<path fill-rule="evenodd" clip-rule="evenodd" d="M116.384 110.647V108.397H117.342V110.647H116.384Z" fill="#0093C9"/>
<path fill-rule="evenodd" clip-rule="evenodd" d="M121.88 110.647V108.397H122.838V110.647H121.88Z" fill="#0093C9"/>
<path fill-rule="evenodd" clip-rule="evenodd" d="M245.47 102.857H232.279V101.901H245.47V102.857Z" fill="#0093C9"/>
<path fill-rule="evenodd" clip-rule="evenodd" d="M217.668 109.228H222.185V113.271H217.668V109.228ZM218.626 110.183V112.315H221.227V110.183H218.626Z" fill="#0093C9"/>
<path fill-rule="evenodd" clip-rule="evenodd" d="M217.668 114.67H222.185V118.713H217.668V114.67ZM218.626 115.626V117.758H221.227V115.626H218.626Z" fill="#0093C9"/>
<path fill-rule="evenodd" clip-rule="evenodd" d="M225.414 109.385H229.932V113.428H225.414V109.385ZM226.372 110.34V112.472H228.973V110.34H226.372Z" fill="#0093C9"/>
<path fill-rule="evenodd" clip-rule="evenodd" d="M225.414 114.775H229.932V118.818H225.414V114.775ZM226.372 115.73V117.862H228.973V115.73H226.372Z" fill="#0093C9"/>
<path fill-rule="evenodd" clip-rule="evenodd" d="M233.108 109.385H237.626V113.428H233.108V109.385ZM234.067 110.34V112.472H236.668V110.34H234.067Z" fill="#0093C9"/>
<path fill-rule="evenodd" clip-rule="evenodd" d="M233.108 114.775H237.626V118.818H233.108V114.775ZM234.067 115.731V117.863H236.668V115.731H234.067Z" fill="#0093C9"/>
<path fill-rule="evenodd" clip-rule="evenodd" d="M240.646 109.385H245.164V113.428H240.646V109.385ZM241.605 110.34V112.472H244.206V110.34H241.605Z" fill="#0093C9"/>
<path fill-rule="evenodd" clip-rule="evenodd" d="M240.646 114.775H245.164V118.818H240.646V114.775ZM241.605 115.731V117.863H244.206V115.731H241.605Z" fill="#0093C9"/>
<path fill-rule="evenodd" clip-rule="evenodd" d="M248.235 109.385H252.753V113.428H248.235V109.385ZM249.194 110.34V112.472H251.795V110.34H249.194Z" fill="#0093C9"/>
<path fill-rule="evenodd" clip-rule="evenodd" d="M248.235 114.775H252.753V118.818H248.235V114.775ZM249.194 115.731V117.863H251.795V115.731H249.194Z" fill="#0093C9"/>
<path fill-rule="evenodd" clip-rule="evenodd" d="M255.931 109.385H260.448V113.428H255.931V109.385ZM256.889 110.34V112.472H259.49V110.34H256.889Z" fill="#0093C9"/>
<path fill-rule="evenodd" clip-rule="evenodd" d="M255.931 114.775H260.448V118.818H255.931V114.775ZM256.889 115.731V117.863H259.49V115.731H256.889Z" fill="#0093C9"/>
<path fill-rule="evenodd" clip-rule="evenodd" d="M239.354 92.9587V98.9247H238.396V92.9587H239.354Z" fill="#0093C9"/>
<path fill-rule="evenodd" clip-rule="evenodd" d="M244.99 86.9858H250.084V90.7675H244.99V86.9858ZM245.948 87.9415V89.8118H249.125V87.9415H245.948Z" fill="#30AF15"/>
<path fill-rule="evenodd" clip-rule="evenodd" d="M255.354 86.9858H260.448V90.7675H255.354V86.9858ZM256.313 87.9415V89.8118H259.49V87.9415H256.313Z" fill="#30AF15"/>
<path fill-rule="evenodd" clip-rule="evenodd" d="M244.833 93.7893H249.926V97.571H244.833V93.7893ZM245.791 94.745V96.6153H248.968V94.745H245.791Z" fill="#30AF15"/>
<path fill-rule="evenodd" clip-rule="evenodd" d="M255.197 93.7893H260.291V97.571H255.197V93.7893ZM256.155 94.745V96.6153H259.332V94.745H256.155Z" fill="#30AF15"/>
<path fill-rule="evenodd" clip-rule="evenodd" d="M271.371 87.0383H276.464V90.82H271.371V87.0383ZM272.329 87.994V89.8643H275.506V87.994H272.329Z" fill="#30AF15"/>
<path fill-rule="evenodd" clip-rule="evenodd" d="M281.788 87.0383H286.881V90.82H281.788V87.0383ZM282.746 87.994V89.8643H285.923V87.994H282.746Z" fill="#30AF15"/>
<path fill-rule="evenodd" clip-rule="evenodd" d="M271.215 93.7893H276.308V97.571H271.215V93.7893ZM272.173 94.745V96.6153H275.35V94.745H272.173Z" fill="#30AF15"/>
<path fill-rule="evenodd" clip-rule="evenodd" d="M281.631 93.7893H286.724V97.571H281.631V93.7893ZM282.589 94.745V96.6153H285.766V94.745H282.589Z" fill="#30AF15"/>
<path fill-rule="evenodd" clip-rule="evenodd" d="M271.162 100.593H276.255V104.374H271.162V100.593ZM272.12 101.548V103.419H275.297V101.548H272.12Z" fill="#30AF15"/>
<path fill-rule="evenodd" clip-rule="evenodd" d="M281.526 100.593H286.62V104.374H281.526V100.593ZM282.485 101.548V103.419H285.661V101.548H282.485Z" fill="#30AF15"/>
<path fill-rule="evenodd" clip-rule="evenodd" d="M271.005 107.396H276.098V111.177H271.005V107.396ZM271.963 108.351V110.222H275.14V108.351H271.963Z" fill="#30AF15"/>
<path fill-rule="evenodd" clip-rule="evenodd" d="M281.369 107.396H286.462V111.177H281.369V107.396ZM282.327 108.351V110.222H285.504V108.351H282.327Z" fill="#30AF15"/>
<path fill-rule="evenodd" clip-rule="evenodd" d="M271.162 114.147H276.255V117.928H271.162V114.147ZM272.12 115.102V116.973H275.297V115.102H272.12Z" fill="#30AF15"/>
<path fill-rule="evenodd" clip-rule="evenodd" d="M281.526 114.147H286.62V117.928H281.526V114.147ZM282.485 115.102V116.973H285.661V115.102H282.485Z" fill="#30AF15"/>
<path fill-rule="evenodd" clip-rule="evenodd" d="M311.31 73.7527V70.979H312.268V73.7527H311.31Z" fill="#0093C9"/>
<path fill-rule="evenodd" clip-rule="evenodd" d="M311.31 78.6196V75.8459H312.268V78.6196H311.31Z" fill="#0093C9"/>
<path fill-rule="evenodd" clip-rule="evenodd" d="M311.31 83.4865V80.7129H312.268V83.4865H311.31Z" fill="#0093C9"/>
<path fill-rule="evenodd" clip-rule="evenodd" d="M311.31 92.8017V90.0281H312.268V92.8017H311.31Z" fill="#0093C9"/>
<path fill-rule="evenodd" clip-rule="evenodd" d="M311.31 97.7212V94.9475H312.268V97.7212H311.31Z" fill="#0093C9"/>
<path fill-rule="evenodd" clip-rule="evenodd" d="M311.31 102.483V99.7097H312.268V102.483H311.31Z" fill="#0093C9"/>
<path fill-rule="evenodd" clip-rule="evenodd" d="M311.31 107.089V104.315H312.268V107.089H311.31Z" fill="#0093C9"/>
<path fill-rule="evenodd" clip-rule="evenodd" d="M311.31 88.0918V85.3181H312.268V88.0918H311.31Z" fill="#0093C9"/>
<path fill-rule="evenodd" clip-rule="evenodd" d="M316.7 73.7527V70.979H317.658V73.7527H316.7Z" fill="#0093C9"/>
<path fill-rule="evenodd" clip-rule="evenodd" d="M316.7 78.6196V75.8459H317.658V78.6196H316.7Z" fill="#0093C9"/>
<path fill-rule="evenodd" clip-rule="evenodd" d="M316.7 83.4865V80.7129H317.658V83.4865H316.7Z" fill="#0093C9"/>
<path fill-rule="evenodd" clip-rule="evenodd" d="M316.7 92.8017V90.0281H317.658V92.8017H316.7Z" fill="#0093C9"/>
<path fill-rule="evenodd" clip-rule="evenodd" d="M316.7 97.7212V94.9475H317.658V97.7212H316.7Z" fill="#0093C9"/>
<path fill-rule="evenodd" clip-rule="evenodd" d="M316.7 102.483V99.7097H317.658V102.483H316.7Z" fill="#0093C9"/>
<path fill-rule="evenodd" clip-rule="evenodd" d="M316.7 107.089V104.315H317.658V107.089H316.7Z" fill="#0093C9"/>
<path fill-rule="evenodd" clip-rule="evenodd" d="M316.7 88.0918V85.3181H317.658V88.0918H316.7Z" fill="#0093C9"/>
<path fill-rule="evenodd" clip-rule="evenodd" d="M322.668 73.7527V70.979H323.626V73.7527H322.668Z" fill="#0093C9"/>
<path fill-rule="evenodd" clip-rule="evenodd" d="M322.668 78.6196V75.8459H323.626V78.6196H322.668Z" fill="#0093C9"/>
<path fill-rule="evenodd" clip-rule="evenodd" d="M322.668 83.4865V80.7129H323.626V83.4865H322.668Z" fill="#0093C9"/>
<path fill-rule="evenodd" clip-rule="evenodd" d="M322.668 88.0918V85.3181H323.626V88.0918H322.668Z" fill="#0093C9"/>
<path fill-rule="evenodd" clip-rule="evenodd" d="M327.169 97.0931V94.2671H328.127V97.0931H327.169Z" fill="#A52828"/>
<path fill-rule="evenodd" clip-rule="evenodd" d="M332.299 97.0931V94.2671H333.257V97.0931H332.299Z" fill="#A52828"/>
<path fill-rule="evenodd" clip-rule="evenodd" d="M337.48 97.0931V94.2671H338.439V97.0931H337.48Z" fill="#A52828"/>
<path fill-rule="evenodd" clip-rule="evenodd" d="M327.117 101.28V98.5061H328.075V101.28H327.117Z" fill="#A52828"/>
<path fill-rule="evenodd" clip-rule="evenodd" d="M332.246 101.28V98.5061H333.204V101.28H332.246Z" fill="#A52828"/>
<path fill-rule="evenodd" clip-rule="evenodd" d="M337.429 101.28V98.5061H338.387V101.28H337.429Z" fill="#A52828"/>
<path fill-rule="evenodd" clip-rule="evenodd" d="M327.064 105.728V102.954H328.023V105.728H327.064Z" fill="#A52828"/>
<path fill-rule="evenodd" clip-rule="evenodd" d="M332.194 105.728V102.954H333.153V105.728H332.194Z" fill="#A52828"/>
<path fill-rule="evenodd" clip-rule="evenodd" d="M337.376 105.728V102.954H338.334V105.728H337.376Z" fill="#A52828"/>
<path fill-rule="evenodd" clip-rule="evenodd" d="M327.117 109.915V107.089H328.075V109.915H327.117Z" fill="#A52828"/>
<path fill-rule="evenodd" clip-rule="evenodd" d="M332.246 109.915V107.089H333.204V109.915H332.246Z" fill="#A52828"/>
<path fill-rule="evenodd" clip-rule="evenodd" d="M337.429 109.915V107.089H338.387V109.915H337.429Z" fill="#A52828"/>
<path fill-rule="evenodd" clip-rule="evenodd" d="M327.117 113.892V111.066H328.075V113.892H327.117Z" fill="#A52828"/>
<path fill-rule="evenodd" clip-rule="evenodd" d="M332.246 113.892V111.066H333.204V113.892H332.246Z" fill="#A52828"/>
<path fill-rule="evenodd" clip-rule="evenodd" d="M337.429 113.892V111.066H338.387V113.892H337.429Z" fill="#A52828"/>
<path fill-rule="evenodd" clip-rule="evenodd" d="M327.117 118.183V115.357H328.075V118.183H327.117Z" fill="#A52828"/>
<path fill-rule="evenodd" clip-rule="evenodd" d="M332.246 118.183V115.357H333.204V118.183H332.246Z" fill="#A52828"/>
<path fill-rule="evenodd" clip-rule="evenodd" d="M337.429 118.183V115.357H338.387V118.183H337.429Z" fill="#A52828"/>
<path fill-rule="evenodd" clip-rule="evenodd" d="M300.945 90.0281V29.5835H301.904V90.0281H300.945Z" fill="#A52828"/>
<path fill-rule="evenodd" clip-rule="evenodd" d="M307.436 60.3553V29.5835H308.394V60.3553H307.436Z" fill="#A52828"/>
<path fill-rule="evenodd" clip-rule="evenodd" d="M313.56 56.4303V29.5835H314.518V56.4303H313.56Z" fill="#A52828"/>
<path fill-rule="evenodd" clip-rule="evenodd" d="M319.266 56.4303V29.5835H320.224V56.4303H319.266Z" fill="#A52828"/>
<path fill-rule="evenodd" clip-rule="evenodd" d="M310.959 0.0153809V9.69699H310.001V0.0153809H310.959Z" fill="#ED7000"/>
<path fill-rule="evenodd" clip-rule="evenodd" d="M64.6689 99.3367H71.1755V104.113H64.6689V99.3367ZM65.6272 100.292V103.157H70.2173V100.292H65.6272Z" fill="#A52828"/>
<path fill-rule="evenodd" clip-rule="evenodd" d="M74.5615 99.3367H81.0681V104.113H74.5615V99.3367ZM75.5197 100.292V103.157H80.1099V100.292H75.5197Z" fill="#A52828"/>
<path fill-rule="evenodd" clip-rule="evenodd" d="M64.6689 105.093H71.1755V109.869H64.6689V105.093ZM65.6272 106.049V108.914H70.2173V106.049H65.6272Z" fill="#A52828"/>
<path fill-rule="evenodd" clip-rule="evenodd" d="M74.5615 105.093H81.0681V109.869H74.5615V105.093ZM75.5197 106.049V108.914H80.1099V106.049H75.5197Z" fill="#A52828"/>
<path fill-rule="evenodd" clip-rule="evenodd" d="M64.6689 111.216H71.1755V115.992H64.6689V111.216ZM65.6272 112.172V115.037H70.2173V112.172H65.6272Z" fill="#A52828"/>
<path fill-rule="evenodd" clip-rule="evenodd" d="M74.5615 111.216H81.0681V115.992H74.5615V111.216ZM75.5197 112.172V115.036H80.1099V112.172H75.5197Z" fill="#A52828"/>
<path fill-rule="evenodd" clip-rule="evenodd" d="M88.5371 99.3367H95.0437V104.113H88.5371V99.3367ZM89.4953 100.292V103.157H94.0855V100.292H89.4953Z" fill="#A52828"/>
<path fill-rule="evenodd" clip-rule="evenodd" d="M98.3779 99.3367H104.885V104.113H98.3779V99.3367ZM99.3362 100.292V103.157H103.926V100.292H99.3362Z" fill="#A52828"/>
<path fill-rule="evenodd" clip-rule="evenodd" d="M88.5371 105.093H95.0437V109.869H88.5371V105.093ZM89.4953 106.049V108.914H94.0855V106.049H89.4953Z" fill="#A52828"/>
<path fill-rule="evenodd" clip-rule="evenodd" d="M98.3779 105.093H104.885V109.869H98.3779V105.093ZM99.3362 106.049V108.914H103.926V106.049H99.3362Z" fill="#A52828"/>
<path fill-rule="evenodd" clip-rule="evenodd" d="M88.5371 111.216H95.0437V115.992H88.5371V111.216ZM89.4953 112.172V115.036H94.0855V112.172H89.4953Z" fill="#A52828"/>
<path fill-rule="evenodd" clip-rule="evenodd" d="M98.3779 111.216H104.885V115.992H98.3779V111.216ZM99.3362 112.172V115.037H103.926V112.172H99.3362Z" fill="#A52828"/>
<path fill-rule="evenodd" clip-rule="evenodd" d="M48.0234 75.9961H65.6267V79.2021H48.0234V75.9961ZM48.9817 76.9518V78.2464H64.6685V76.9518H48.9817Z" fill="#0093C9"/>
<path fill-rule="evenodd" clip-rule="evenodd" d="M48.0234 81.9097H65.6267V85.1157H48.0234V81.9097ZM48.9817 82.8654V84.16H64.6685V82.8654H48.9817Z" fill="#0093C9"/>
<path fill-rule="evenodd" clip-rule="evenodd" d="M47.8145 87.8232H65.4178V91.0292H47.8145V87.8232ZM48.7727 88.7789V90.0736H64.4595V88.7789H48.7727Z" fill="#0093C9"/>
<path fill-rule="evenodd" clip-rule="evenodd" d="M48.0234 93.1614H65.6267V96.3674H48.0234V93.1614ZM48.9817 94.1171V95.4117H64.6685V94.1171H48.9817Z" fill="#0093C9"/>
<path fill-rule="evenodd" clip-rule="evenodd" d="M47.8145 99.6506H58.1421V102.857H47.8145V99.6506ZM48.7727 100.606V101.901H57.1839V100.606H48.7727Z" fill="#0093C9"/>
<path fill-rule="evenodd" clip-rule="evenodd" d="M47.8145 105.407H58.1421V108.613H47.8145V105.407ZM48.7727 106.363V107.658H57.1839V106.363H48.7727Z" fill="#0093C9"/>
<path fill-rule="evenodd" clip-rule="evenodd" d="M47.8145 111.216H58.1421V114.422H47.8145V111.216ZM48.7727 112.172V113.467H57.1839V112.172H48.7727Z" fill="#0093C9"/>
<path fill-rule="evenodd" clip-rule="evenodd" d="M52.6816 61.4475H55.943V65.5887H54.9848V62.4032H53.6399V65.9027H52.6816V61.4475Z" fill="#0093C9"/>
<path fill-rule="evenodd" clip-rule="evenodd" d="M57.1309 61.4475H60.3399V65.9027H59.3816V62.4032H58.0891V65.9027H57.1309V61.4475Z" fill="#0093C9"/>
<path fill-rule="evenodd" clip-rule="evenodd" d="M94.0332 87.3H98.6554V90.5515H97.6972V88.2557H94.9914V90.3946H94.0332V87.3Z" fill="#ED7000"/>
<path d="M31.0195 119.335V111.485L37.8241 107.193L45.3092 111.485V119.335H31.0195Z" fill="#F6F6F6"/>
<path fill-rule="evenodd" clip-rule="evenodd" d="M37.8118 106.612L45.8082 111.197V119.832H30.5205V111.211L37.8118 106.612ZM37.8364 107.774L31.5185 111.759V118.837H44.8102V111.773L37.8364 107.774Z" fill="#30AF15"/>
<path fill-rule="evenodd" clip-rule="evenodd" d="M34.0479 113.414H37.7803V117.719H34.0479V113.414ZM35.0061 114.37V116.763H36.822V114.37H35.0061Z" fill="#0093C9"/>
<path fill-rule="evenodd" clip-rule="evenodd" d="M38.6016 113.414H42.334V117.719H38.6016V113.414ZM39.5598 114.37V116.763H41.3757V114.37H39.5598Z" fill="#0093C9"/>
<path fill-rule="evenodd" clip-rule="evenodd" d="M90.5452 48.3217C92.1598 47.5285 94.3549 47.1516 96.5679 48.3146C98.7097 49.4402 99.4443 50.7387 99.5562 51.8492C99.5813 52.0983 99.574 52.3302 99.5481 52.5393C100.842 51.9778 101.869 51.7565 102.688 51.7899C103.745 51.833 104.434 52.3004 104.846 52.9312C105.24 53.5334 105.356 54.2442 105.384 54.7685C105.39 54.8658 105.392 54.9585 105.392 55.0451C108.032 54.5439 109.537 55.1689 110.366 56.1081C110.796 56.5954 111.007 57.1298 111.111 57.5355C111.164 57.7393 111.19 57.9145 111.204 58.041C111.211 58.1045 111.214 58.1562 111.216 58.1937C111.216 58.2028 111.217 58.2112 111.217 58.2186C111.217 58.2264 111.218 58.2333 111.218 58.2392L111.218 58.2535L111.218 58.2585L111.218 58.2604V58.2612C111.218 58.2616 111.218 58.2619 110.739 58.2619L111.218 58.2619V58.7398H77.3955L77.3402 58.3249C77.1726 57.0681 77.3463 56.0265 77.9942 55.1628C78.627 54.3191 79.6613 53.7162 81.0526 53.2079C82.5785 52.6505 84.4045 53.0417 85.7707 53.5124C86.4678 53.7527 87.0751 54.0243 87.508 54.2357C87.5248 54.2439 87.5413 54.252 87.5575 54.26C87.5775 54.0322 87.6002 53.765 87.6229 53.4812C87.6886 52.6604 87.7522 51.7243 87.7522 51.197C87.7522 50.9317 87.8665 50.6671 88.0014 50.4423C88.1436 50.2054 88.3427 49.9573 88.5826 49.7129C89.0631 49.2236 89.7389 48.7179 90.5452 48.3217ZM87.7274 55.4296L87.7261 55.4288L87.719 55.4247C87.7124 55.4209 87.702 55.415 87.6881 55.4071C87.6602 55.3914 87.618 55.368 87.5628 55.3381C87.4524 55.2785 87.2903 55.1934 87.0867 55.094C86.6788 54.8949 86.1085 54.64 85.4577 54.4157C84.1283 53.9576 82.5781 53.6684 81.3822 54.1053C80.0516 54.5914 79.2278 55.1136 78.7614 55.7353C78.3692 56.2581 78.1921 56.9034 78.2485 57.7841H110.186C110.185 57.7805 110.184 57.7769 110.183 57.7732C110.105 57.4675 109.949 57.0829 109.646 56.7394C109.073 56.089 107.819 55.4277 104.989 56.1098L104.295 56.277L104.403 55.5741L104.403 55.5735L104.403 55.573L104.404 55.5649C104.405 55.557 104.407 55.5439 104.409 55.5263C104.413 55.491 104.418 55.4375 104.423 55.3694C104.433 55.2327 104.439 55.04 104.427 54.8196C104.403 54.3675 104.304 53.8518 104.043 53.4532C103.801 53.0831 103.398 52.7753 102.649 52.7448C101.866 52.7129 100.694 52.9855 98.9721 53.8719L97.3616 54.701L98.349 53.1894C98.3488 53.1898 98.3489 53.1896 98.3494 53.1888C98.3503 53.1873 98.3526 53.1835 98.3561 53.1775C98.3631 53.1656 98.3746 53.145 98.3891 53.1166C98.4182 53.0596 98.4583 52.972 98.4966 52.8595C98.5734 52.6336 98.6401 52.3158 98.6028 51.9447C98.5314 51.2366 98.0621 50.1801 96.1212 49.1601C94.2514 48.1774 92.3899 48.4808 90.9686 49.1791C90.2569 49.5287 89.67 49.9714 89.2672 50.3816C89.0655 50.587 88.9177 50.7763 88.8236 50.9332C88.7767 51.0114 88.7466 51.0756 88.729 51.1249C88.7121 51.1722 88.7106 51.195 88.7105 51.1969C88.7105 51.197 88.7105 51.197 88.7105 51.1969C88.7105 51.7686 88.6433 52.7427 88.5781 53.5573C88.5452 53.9681 88.5123 54.3443 88.4877 54.6177C88.4754 54.7544 88.4651 54.8655 88.4579 54.9426L88.4496 55.0315L88.4466 55.0623L88.4466 55.0629L88.3749 55.8079L87.7274 55.4296Z" fill="#0093C9"/>
<path fill-rule="evenodd" clip-rule="evenodd" d="M267.298 21.8422C268.502 21.244 270.149 20.9589 271.812 21.8342C273.404 22.6722 273.98 23.6557 274.073 24.5215C274.086 24.6374 274.089 24.7485 274.086 24.8538C274.957 24.4997 275.667 24.357 276.249 24.383C277.061 24.4194 277.599 24.7849 277.92 25.2828C278.221 25.7516 278.304 26.2974 278.322 26.6898C278.323 26.7064 278.323 26.7227 278.324 26.7389C280.194 26.4149 281.305 26.8745 281.934 27.5951C282.265 27.9746 282.427 28.3894 282.507 28.7021C282.547 28.8595 282.567 28.9949 282.577 29.0934C282.583 29.1427 282.585 29.1833 282.587 29.2131C282.588 29.2281 282.588 29.2404 282.588 29.2498L282.588 29.2618L282.588 29.2662L282.588 29.2688C282.588 29.2691 282.588 29.2695 282.109 29.2695L282.588 29.2695L282.588 29.7473H257.567L257.505 29.3409C257.362 28.3964 257.482 27.587 257.988 26.9103C258.477 26.2546 259.278 25.7956 260.329 25.4182C261.512 24.9936 262.891 25.2911 263.9 25.6385C264.352 25.7941 264.751 25.9675 265.058 26.1133C265.069 25.9989 265.08 25.8755 265.092 25.7471C265.144 25.1558 265.194 24.4828 265.194 24.0885C265.194 23.8604 265.288 23.6415 265.391 23.4644C265.501 23.2767 265.653 23.084 265.833 22.8972C266.193 22.523 266.698 22.1407 267.298 21.8422ZM265.22 27.2736L265.22 27.2732L265.215 27.2705L265.194 27.2582C265.174 27.2471 265.144 27.2303 265.105 27.2088C265.026 27.1659 264.909 27.1044 264.763 27.0325C264.469 26.8883 264.058 26.7039 263.587 26.5419C262.62 26.209 261.512 26.0094 260.654 26.3174C259.664 26.6727 259.077 27.051 258.756 27.4813C258.506 27.8152 258.383 28.2263 258.411 28.7916H281.535C281.472 28.6096 281.372 28.4068 281.211 28.2225C280.834 27.7897 279.974 27.2992 277.931 27.7973L277.23 27.9682L277.344 27.2588L277.344 27.2581L277.345 27.2539C277.345 27.2488 277.347 27.2401 277.348 27.2281C277.351 27.2041 277.355 27.1669 277.359 27.1193C277.366 27.0235 277.372 26.8882 277.365 26.7335C277.35 26.413 277.283 26.0626 277.113 25.7987C276.962 25.5639 276.709 25.3603 276.206 25.3378C275.669 25.3137 274.837 25.4983 273.586 26.1362L272.016 26.937L272.962 25.4576L272.964 25.453C272.968 25.4462 272.975 25.4333 272.985 25.4148C273.003 25.3776 273.029 25.3189 273.054 25.2428C273.105 25.0898 273.148 24.8746 273.121 24.6237C273.07 24.155 272.756 23.4115 271.365 22.6795C270.045 21.9848 268.733 22.1969 267.726 22.6976C267.221 22.9486 266.806 23.2663 266.524 23.5594C266.382 23.7061 266.282 23.8389 266.219 23.9455C266.161 24.0458 266.154 24.0927 266.153 24.0926C266.153 24.0926 266.153 24.0912 266.153 24.0885C266.153 24.5315 266.098 25.2453 266.046 25.8315C266.02 26.1283 265.993 26.3984 265.974 26.5943C265.964 26.6923 265.955 26.7719 265.95 26.827L265.943 26.8907L265.941 26.9129L265.861 27.6508L265.22 27.2736Z" fill="#0093C9"/>
<path fill-rule="evenodd" clip-rule="evenodd" d="M160.675 22.6188C161.674 22.0311 162.653 21.8774 163.572 22.0247C164.658 22.1986 165.606 22.7831 166.373 23.4463C167.142 24.112 167.758 24.8831 168.179 25.4813C168.39 25.7817 168.555 26.0417 168.667 26.2276C168.723 26.3206 168.767 26.3953 168.796 26.4475C168.811 26.4736 168.822 26.4941 168.83 26.5084L168.839 26.5253L168.842 26.5302L168.843 26.5322C168.843 26.5324 168.843 26.5326 168.421 26.7576L168.843 26.5322L169.219 27.2354H130.574L130.52 26.8186C130.28 24.96 131.312 23.5984 132.616 22.7994C133.01 22.5261 133.552 22.4406 134.054 22.4229C134.583 22.4043 135.163 22.4592 135.691 22.5364C136.221 22.6141 136.714 22.7167 137.073 22.7996C137.253 22.8411 137.4 22.8779 137.503 22.9044C137.555 22.9177 137.595 22.9284 137.623 22.9359L137.655 22.9447L137.664 22.9471L137.667 22.948C137.667 22.948 137.667 22.9481 137.538 23.4082L137.667 22.948L137.741 22.9686L138.501 23.4749C138.49 23.2641 138.494 23.0451 138.53 22.8627C138.531 22.8558 138.532 22.8486 138.532 22.841C138.56 22.5735 138.627 21.9358 139.089 21.2768C139.583 20.5704 140.483 19.9008 142.092 19.5404C143.855 19.1452 145.184 20.0746 146.021 21.0018C146.151 21.1461 146.271 21.2922 146.381 21.436C146.408 20.7219 146.565 19.8178 147.38 18.9367C148.289 17.9544 149.96 17.0623 152.981 16.3999C154.585 16.0482 155.908 16.3092 156.977 16.9226C158.034 17.529 158.809 18.4604 159.371 19.4025C159.934 20.3463 160.298 21.3261 160.521 22.0644C160.583 22.2686 160.634 22.4552 160.675 22.6188ZM146.414 23.3328L146.412 23.3272C146.409 23.3218 146.405 23.3129 146.4 23.3009C146.389 23.2768 146.372 23.2401 146.349 23.1928C146.303 23.0979 146.232 22.961 146.139 22.7978C145.95 22.4697 145.672 22.0436 145.308 21.6411C144.575 20.8283 143.574 20.1877 142.302 20.4728C140.874 20.7927 140.204 21.3529 139.874 21.824C139.556 22.2779 139.511 22.7063 139.484 22.9504C139.483 22.9642 139.481 22.9773 139.48 22.9899L139.477 23.0155L139.472 23.0406C139.439 23.1852 139.452 23.4866 139.493 23.8148C139.511 23.9657 139.533 24.1035 139.55 24.2039C139.558 24.2538 139.566 24.2941 139.571 24.3214L139.577 24.3523L139.578 24.3598L139.578 24.3613L139.805 25.4938L137.337 23.849C137.317 23.8436 137.292 23.8371 137.263 23.8297C137.167 23.8049 137.028 23.7701 136.857 23.7307C136.514 23.6516 136.048 23.5547 135.552 23.482C135.052 23.4088 134.536 23.3622 134.088 23.378C133.621 23.3944 133.313 23.477 133.159 23.5874L133.144 23.5976L133.129 23.6068C132.146 24.2053 131.449 25.1055 131.444 26.2797H167.566C167.513 26.201 167.456 26.1176 167.395 26.0304C167 25.4691 166.435 24.7651 165.745 24.1682C165.052 23.5689 164.264 23.1035 163.42 22.9683C162.597 22.8363 161.668 23.0102 160.651 23.7875L160.018 24.2716L159.887 23.487L159.887 23.4838L159.884 23.4699C159.882 23.4571 159.878 23.4372 159.873 23.4108C159.863 23.3578 159.847 23.2787 159.824 23.1775C159.779 22.975 159.707 22.6849 159.603 22.3398C159.394 21.6472 159.058 20.7462 158.548 19.8911C158.037 19.0343 157.366 18.2484 156.499 17.751C155.645 17.2604 154.566 17.0309 153.187 17.3333C150.241 17.9793 148.798 18.8142 148.084 19.585C147.395 20.3294 147.334 21.07 147.334 21.7336V25.4997L146.414 23.3335L146.414 23.3328Z" fill="#0093C9"/>
<path fill-rule="evenodd" clip-rule="evenodd" d="M362.941 18.0827C364.761 17.0241 367.325 16.3366 370.513 17.4081C373.672 18.4698 375.082 20.2004 375.675 21.7244C375.951 22.4341 376.043 23.0824 376.063 23.5708L376.345 23.4152C377.288 22.8268 378.741 22.7888 380.057 23.0438C381.388 23.3019 382.759 23.8946 383.539 24.7612C384.361 25.6491 384.388 26.7437 384.245 27.5478C384.213 27.7235 384.173 27.8892 384.13 28.0408C384.532 27.9468 385.046 27.8421 385.634 27.7565C387.058 27.5494 388.949 27.4497 390.739 27.9176C392.68 28.4253 393.458 29.9337 393.748 31.2259C393.892 31.8714 393.921 32.4815 393.915 32.927C393.912 33.1508 393.9 33.3358 393.889 33.4663C393.883 33.5316 393.878 33.5834 393.873 33.6199C393.871 33.6381 393.869 33.6525 393.868 33.6628L393.866 33.6752L393.866 33.6791L393.865 33.6804L393.865 33.6809C393.865 33.6812 393.865 33.6814 393.391 33.6131L393.865 33.6809L393.806 34.091H342.72L342.667 33.674L343.142 33.6131C342.667 33.674 342.667 33.6743 342.667 33.674L342.666 33.6729L342.666 33.6711L342.666 33.6656L342.663 33.6472C342.662 33.6317 342.659 33.6098 342.656 33.5818C342.651 33.5257 342.644 33.4453 342.637 33.3435C342.624 33.1401 342.613 32.8506 342.62 32.4992C342.634 31.7982 342.719 30.841 343.008 29.8258C343.59 27.7823 345.011 25.4865 348.306 24.6208L348.31 24.6198C351.52 23.8038 354.333 24.3766 356.335 25.1473C357.336 25.5328 358.138 25.969 358.691 26.3102C358.754 26.3492 358.814 26.387 358.871 26.4234C358.873 26.4103 358.874 26.3972 358.875 26.3839C358.931 25.8701 359.01 25.1767 359.102 24.4596C359.194 23.7436 359.3 22.9987 359.41 22.3839C359.465 22.077 359.522 21.7963 359.58 21.5651C359.634 21.3495 359.701 21.128 359.789 20.9736L359.796 20.9628L359.802 20.9523C360.067 20.5401 361.139 19.1311 362.941 18.0827ZM358.962 27.652L358.961 27.6513L358.953 27.6453C358.946 27.6396 358.934 27.6305 358.918 27.6183C358.886 27.5939 358.837 27.5571 358.772 27.51C358.64 27.4159 358.444 27.2811 358.187 27.1231C357.674 26.8068 356.925 26.3992 355.99 26.0389C354.118 25.3183 351.514 24.7921 348.549 25.5454C345.669 26.3024 344.447 28.2712 343.93 30.0869C343.669 31.0015 343.591 31.8727 343.578 32.5177C343.574 32.7604 343.578 32.9696 343.586 33.1353H392.951C392.954 33.0681 392.956 32.9941 392.957 32.9141C392.962 32.5174 392.936 31.9859 392.812 31.4343C392.565 30.3323 391.956 29.2241 390.496 28.8421C388.883 28.4204 387.136 28.5038 385.772 28.7022C385.094 28.8009 384.52 28.9266 384.116 29.0274C383.914 29.0777 383.755 29.1217 383.648 29.1528C383.594 29.1684 383.554 29.1807 383.527 29.1889L383.497 29.1981L383.491 29.2002L383.489 29.2006L382.343 29.5724L382.92 28.518L382.921 28.5174L382.921 28.5159L382.928 28.5026C382.935 28.4899 382.945 28.4695 382.958 28.4423C382.985 28.3878 383.022 28.3061 383.063 28.2028C383.146 27.9948 383.243 27.7063 383.301 27.3802C383.419 26.72 383.369 25.9845 382.833 25.4076L382.83 25.4045L382.827 25.4014C382.245 24.7521 381.105 24.2206 379.874 23.9819C378.631 23.741 377.474 23.8322 376.846 24.2303L376.833 24.2382L374.873 25.316L375.072 24.312L375.072 24.3112L375.072 24.3101L375.073 24.3076C375.073 24.3026 375.075 24.2935 375.077 24.2806C375.081 24.2547 375.086 24.2135 375.092 24.1586C375.103 24.0487 375.113 23.8846 375.107 23.6794C375.097 23.2686 375.026 22.6985 374.781 22.0698C374.301 20.8332 373.121 19.293 370.207 18.3137C367.323 17.3443 365.046 17.965 363.424 18.9082C361.807 19.8485 360.842 21.1123 360.618 21.4544C360.599 21.4916 360.56 21.597 360.51 21.7978C360.459 21.9987 360.406 22.2553 360.353 22.5518C360.248 23.1439 360.144 23.8709 360.053 24.581C359.962 25.29 359.884 25.9768 359.828 26.4868C359.8 26.7417 359.778 26.9521 359.763 27.0987C359.756 27.172 359.75 27.2293 359.746 27.2682L359.74 27.3272L359.654 28.2116L358.962 27.6523L358.962 27.652Z" fill="#0093C9"/>
<path fill-rule="evenodd" clip-rule="evenodd" d="M380.142 53.3307C381.15 53.1068 382.03 53.1534 382.787 53.3767C383.664 53.6349 384.348 54.1205 384.866 54.6418C385.382 55.1617 385.74 55.7237 385.968 56.1522C386.083 56.3673 386.166 56.5514 386.222 56.6835C386.249 56.7496 386.27 56.8029 386.284 56.8408C386.291 56.8598 386.297 56.8749 386.301 56.8859L386.305 56.8991L386.307 56.9034L386.308 56.9055C386.308 56.9057 386.308 56.906 385.854 57.0583L386.308 56.906L386.52 57.5362H356.441L356.429 57.0702L356.908 57.0583C356.429 57.0702 356.429 57.0699 356.429 57.0696L356.429 57.069L356.429 57.0675L356.429 57.0639L356.429 57.0544C356.429 57.0471 356.429 57.0377 356.429 57.0264C356.429 57.0038 356.43 56.9735 356.433 56.9363C356.438 56.862 356.448 56.7597 356.47 56.6366C356.513 56.3911 356.603 56.0584 356.79 55.6996C357.172 54.9673 357.934 54.1734 359.398 53.7716C360.827 53.3794 361.943 53.5148 362.715 53.7648C362.936 53.8363 363.128 53.9168 363.289 53.9957C363.362 53.7375 363.466 53.4283 363.611 53.1159C363.962 52.3591 364.645 51.3995 365.859 51.3995C366.832 51.3995 367.69 51.58 368.303 51.7589C368.421 51.7936 368.531 51.8282 368.631 51.8617C368.683 51.6039 368.792 51.3076 369.002 51.0001C369.586 50.1441 370.879 49.2962 373.578 48.8419C374.986 48.6049 376.131 48.7892 377.051 49.2258C377.966 49.6604 378.627 50.329 379.097 51.0114C379.566 51.6924 379.854 52.3975 380.025 52.9278C380.072 53.0762 380.111 53.2119 380.142 53.3307ZM368.896 52.988L368.886 52.9837C368.878 52.9799 368.864 52.9737 368.846 52.9656C368.809 52.9492 368.752 52.925 368.678 52.8955C368.528 52.8365 368.309 52.7565 368.034 52.6761C367.482 52.5149 366.717 52.3552 365.859 52.3552C365.241 52.3552 364.797 52.8348 364.481 53.5171C364.331 53.8414 364.23 54.1708 364.167 54.4222C364.135 54.547 364.114 54.6504 364.1 54.7214C364.093 54.7569 364.088 54.7841 364.086 54.8017L364.082 54.8208L364.082 54.8243L364.082 54.8249L363.954 55.7034L363.291 55.1146L363.287 55.1109C363.281 55.1061 363.27 55.0972 363.254 55.085C363.221 55.0606 363.168 55.0231 363.095 54.9785C362.949 54.8893 362.723 54.772 362.42 54.6738C361.818 54.4789 360.893 54.3526 359.652 54.6931C358.447 55.024 357.9 55.643 357.64 56.1405C357.558 56.2983 357.502 56.4486 357.465 56.5805H385.111C384.913 56.2106 384.61 55.7417 384.185 55.3144C383.754 54.8806 383.205 54.4962 382.516 54.2932C381.831 54.0913 380.977 54.06 379.919 54.3761L379.391 54.5339L379.308 53.991L379.308 53.9902L379.307 53.9817C379.305 53.9739 379.303 53.9611 379.3 53.9438C379.294 53.9091 379.283 53.8562 379.268 53.788C379.237 53.6515 379.188 53.4545 379.112 53.2195C378.96 52.7473 378.708 52.1343 378.307 51.5528C377.908 50.9726 377.367 50.4344 376.639 50.0888C375.915 49.7453 374.973 49.5764 373.737 49.7842C371.15 50.2196 370.165 50.9939 369.794 51.5379C369.609 51.8088 369.56 52.0457 369.55 52.204C369.545 52.2847 369.551 52.3473 369.557 52.3855C369.559 52.4045 369.562 52.4172 369.563 52.4227C369.564 52.4229 369.564 52.4232 369.564 52.4234L369.888 53.4658L368.896 52.9884L368.896 52.988Z" fill="#0093C9"/>
<path fill-rule="evenodd" clip-rule="evenodd" d="M240.132 18.1183L240.757 17.394L244.889 20.9422L248.606 17.6601L249.242 18.3756L244.898 22.2108L240.132 18.1183Z" fill="#0093C9"/>
<path fill-rule="evenodd" clip-rule="evenodd" d="M216.768 21.1075L217.222 20.2661L220.432 21.9904L222.275 20.332L222.916 21.0416L220.572 23.1512L216.768 21.1075Z" fill="#0093C9"/>
<path fill-rule="evenodd" clip-rule="evenodd" d="M341.929 71.6349L342.47 70.8462L345.45 72.8799L347.577 70.8919L348.232 71.5892L345.544 74.1019L341.929 71.6349Z" fill="#0093C9"/>
<path fill-rule="evenodd" clip-rule="evenodd" d="M244.31 77.3044H260.814V83.3751H269.487V77.3044H287.09V83.8461H297.977V128.186H265.883V127.23H297.019V84.8018H286.132V78.2601H270.445V84.3308H259.856V78.2601H245.268V84.5924H234.067V98.9248H233.108V83.6367H244.31V77.3044Z" fill="#A52828"/>
<path fill-rule="evenodd" clip-rule="evenodd" d="M231.8 98.447H245.949V101.901H268.09V107.2H266.363V128.186H211.229V107.2H209.659V101.901H231.8V98.447ZM232.759 99.4027V102.857H210.617V106.245H212.188V127.23H265.405V106.245H267.132V102.857H244.991V99.4027H232.759Z" fill="#0093C9"/>
<path fill-rule="evenodd" clip-rule="evenodd" d="M65.0347 89.9167H80.806V95.4117H88.6938V89.9167H104.517V95.464H112.735V128.186H57.1309V95.464H65.0347V89.9167ZM65.9929 90.8724V96.4197H58.0891V127.23H111.777V96.4197H103.559V90.8724H89.652V96.3674H79.8478V90.8724H65.9929Z" fill="#ED7000"/>
<path fill-rule="evenodd" clip-rule="evenodd" d="M372.44 102.47L365.934 102.47L365.934 97.694L372.44 97.694L372.44 102.47ZM371.482 101.514L371.482 98.6497L366.892 98.6497L366.892 101.514L371.482 101.514Z" fill="#0093C9"/>
<path fill-rule="evenodd" clip-rule="evenodd" d="M362.536 102.47L356.03 102.47L356.03 97.694L362.536 97.694L362.536 102.47ZM361.578 101.514L361.578 98.6497L356.988 98.6497L356.988 101.514L361.578 101.514Z" fill="#0093C9"/>
<path fill-rule="evenodd" clip-rule="evenodd" d="M372.44 108.216L365.934 108.216L365.934 103.44L372.44 103.44L372.44 108.216ZM371.482 107.261L371.482 104.396L366.892 104.396L366.892 107.261L371.482 107.261Z" fill="#0093C9"/>
<path fill-rule="evenodd" clip-rule="evenodd" d="M362.536 108.216L356.03 108.216L356.03 103.44L362.536 103.44L362.536 108.216ZM361.578 107.261L361.578 104.396L356.988 104.396L356.988 107.261L361.578 107.261Z" fill="#0093C9"/>
<path fill-rule="evenodd" clip-rule="evenodd" d="M372.44 114.383L365.934 114.383L365.934 109.607L372.44 109.607L372.44 114.383ZM371.482 113.428L371.482 110.563L366.892 110.563L366.892 113.428L371.482 113.428Z" fill="#0093C9"/>
<path fill-rule="evenodd" clip-rule="evenodd" d="M362.536 114.383L356.03 114.383L356.03 109.607L362.536 109.607L362.536 114.383ZM361.578 113.428L361.578 110.563L356.988 110.563L356.988 113.428L361.578 113.428Z" fill="#0093C9"/>
<path fill-rule="evenodd" clip-rule="evenodd" d="M372.44 120.355L365.934 120.355L365.934 115.579L372.44 115.579L372.44 120.355ZM371.482 119.399L371.482 116.535L366.892 116.535L366.892 119.399L371.482 119.399Z" fill="#0093C9"/>
<path fill-rule="evenodd" clip-rule="evenodd" d="M362.536 120.355L356.03 120.355L356.03 115.579L362.536 115.579L362.536 120.355ZM361.578 119.399L361.578 116.535L356.988 116.535L356.988 119.399L361.578 119.399Z" fill="#0093C9"/>
<path fill-rule="evenodd" clip-rule="evenodd" d="M362.291 85.665H366.861V88.7595H365.903V86.6207H363.249V88.9165H362.291V85.665Z" fill="#ED7000"/>
<path fill-rule="evenodd" clip-rule="evenodd" d="M356.429 88.2817H372.253V93.7767H380.141V88.2817H395.912V93.829H403.764V126.551H348.159V93.829H356.429V88.2817ZM357.388 89.2374V94.7847H349.117V125.595H402.805V94.7847H394.954V89.2374H381.099V94.7324H371.295V89.2374H357.388Z" fill="#ED7000"/>
</svg>
