<svg width="392" height="122" viewBox="0 0 392 122" fill="none" xmlns="http://www.w3.org/2000/svg">
<mask id="mask0_2244_902" style="mask-type:alpha" maskUnits="userSpaceOnUse" x="-7" y="0" width="399" height="124">
<rect x="-7" width="399" height="123.155" fill="#C4C4C4"/>
</mask>
<g mask="url(#mask0_2244_902)">
<path fill-rule="evenodd" clip-rule="evenodd" d="M45.7773 102.453H50.1379V107.902H49.1796V103.408H46.7356V106.489H45.7773V102.453Z" fill="#0093C9"/>
<path fill-rule="evenodd" clip-rule="evenodd" d="M38.0377 102.94L56.6287 110.246V124.812H20.8623V109.776L38.0377 102.94ZM38.04 103.968L21.8205 110.424V123.857H55.6705V110.896L38.04 103.968Z" fill="#0093C9"/>
<path fill-rule="evenodd" clip-rule="evenodd" d="M24.8408 113.39H33.9122V121.358H24.8408V113.39ZM25.799 114.346V120.403H32.954V114.346H25.799Z" fill="#0093C9"/>
<path fill-rule="evenodd" clip-rule="evenodd" d="M43.4219 113.39H52.4933V121.358H43.4219V113.39ZM44.3801 114.346V120.403H51.5351V114.346H44.3801Z" fill="#0093C9"/>
<path fill-rule="evenodd" clip-rule="evenodd" d="M35.5703 113.39H41.6582V121.358H35.5703V113.39ZM36.5285 114.346V120.403H40.6999V114.346H36.5285Z" fill="#0093C9"/>
<path fill-rule="evenodd" clip-rule="evenodd" d="M70.4839 70.4248H82.8529V73.5648H88.4536V78.0654H91.6989V95.3945H90.7406V79.0211H87.4954V74.5205H81.8947V71.3805H71.4421V74.6251H65.5797V79.5968H62.4914V132.708H61.5332V78.6411H64.6215V73.6695H70.4839V70.4248Z" fill="#0093C9"/>
<path fill-rule="evenodd" clip-rule="evenodd" d="M128.585 78.7456H144.356V81.5716H150.323V133.186H132.257V132.23H149.365V82.5273H143.398V79.7013H129.543V82.8413H124.518V95.3944H123.56V81.8856H128.585V78.7456Z" fill="#0093C9"/>
<path fill-rule="evenodd" clip-rule="evenodd" d="M180.299 62.7842H191.569V63.9878H192.878V66.8662H194.658V74.6638H200.363V112.036H199.405V75.6195H193.699V67.8218H191.92V64.9435H190.611V63.7399H181.258V64.6295H179.792V68.2405H174.385V64.6295H162.519V68.5545H160.268V75.9858H153.778V132.23H162.773V133.186H152.819V75.0301H159.31V67.5988H161.561V63.6738H175.343V67.2848H178.834V63.6738H180.299V62.7842Z" fill="#A52828"/>
<path fill-rule="evenodd" clip-rule="evenodd" d="M180.614 110.983H202.248V114.28H223.185V118.637H220.254V132.139H162.294V119.108H158.996V114.385H180.614V110.983ZM181.572 111.939V115.34H159.954V118.153H163.252V131.183H219.295V117.682H222.227V115.236H201.289V111.939H181.572Z" fill="#0093C9"/>
<path fill-rule="evenodd" clip-rule="evenodd" d="M219.579 15.8601L226.796 34.5997V40.0717H230.617V45.8807H235.904V107.379H234.946V46.8364H229.659V41.0274H225.838V34.7769L219.551 18.4534L213.03 34.3635V40.5564H209.628V46.8364H204.184V115.804H203.226V45.8807H208.669V39.6008H212.072V34.1757L219.579 15.8601Z" fill="#ED7000"/>
<path fill-rule="evenodd" clip-rule="evenodd" d="M279.646 45.6814L300.076 52.9293V60.4062L303.583 63.0228V82.7823H302.625V63.5014L299.118 60.8847V53.6037L280.605 47.0357V57.0304L277.464 55.6697V82.7823H276.506V54.2126L279.646 55.5733V45.6814Z" fill="#0093C9"/>
<path fill-rule="evenodd" clip-rule="evenodd" d="M325.866 14.2192H335.67V18.0395H338.497V23.2205H341.114V27.9305H344.987V33.1115H348.913V73.2577H347.955V34.0671H344.029V28.8862H340.155V24.1762H337.538V18.9952H334.712V15.1749H326.824V19.4139H324.207V23.9145H321.119V28.8862H317.978V33.8055H313.058V89.3239H312.1V32.8498H317.02V27.9305H320.16V22.9588H323.249V18.4582H325.866V14.2192Z" fill="#ED7000"/>
<path fill-rule="evenodd" clip-rule="evenodd" d="M334.031 62.9934H341.898V67.1277H348.912V73.5647H350.587V93.5104H349.629V74.5203H347.954V68.0834H340.94V63.9491H334.989V68.4497H328.132V74.0494H325.777V132.23H341V133.186H324.818V73.0937H327.174V67.494H334.031V62.9934Z" fill="#0093C9"/>
<path fill-rule="evenodd" clip-rule="evenodd" d="M338.742 93.0327H365.506V98.018H363.464V133.186H340.522V98.5937H338.742V93.0327ZM339.7 93.9884V97.638H341.48V132.23H362.506V97.0623H364.547V93.9884H339.7Z" fill="#30AF15"/>
<path fill-rule="evenodd" clip-rule="evenodd" d="M253.108 62.9934H268.513V82.7821H267.555V63.9491H254.067V88.4864H253.108V62.9934Z" fill="#0093C9"/>
<path fill-rule="evenodd" clip-rule="evenodd" d="M241.437 42.8977H259.354V63.4714H258.396V43.8534H242.395V107.379H241.437V42.8977Z" fill="#0093C9"/>
<path fill-rule="evenodd" clip-rule="evenodd" d="M245.676 36.9316H255.114V43.3754H254.155V37.8873H246.634V43.3754H245.676V36.9316Z" fill="#0093C9"/>
<path fill-rule="evenodd" clip-rule="evenodd" d="M250.874 31.7576V37.4095H249.916V31.7576H250.874Z" fill="#0093C9"/>
<path fill-rule="evenodd" clip-rule="evenodd" d="M287.969 41.6416H292.015V50.3881H291.057V42.5973H288.927V49.2891H287.969V41.6416Z" fill="#0093C9"/>
<path fill-rule="evenodd" clip-rule="evenodd" d="M182.76 63.4714H183.718V65.9766H187.889V63.4714H188.848V66.9322H182.76V63.4714Z" fill="#A52828"/>
<path fill-rule="evenodd" clip-rule="evenodd" d="M167.282 57.0867V64.1516H166.324V57.0867H167.282Z" fill="#A52828"/>
<path fill-rule="evenodd" clip-rule="evenodd" d="M171.47 57.0867V64.1516H170.512V57.0867H171.47Z" fill="#A52828"/>
<path fill-rule="evenodd" clip-rule="evenodd" d="M211.443 112.507V57.0867H212.402V112.507H211.443Z" fill="#0093C9"/>
<path fill-rule="evenodd" clip-rule="evenodd" d="M216.469 112.507V57.0867H217.427V112.507H216.469Z" fill="#0093C9"/>
<path fill-rule="evenodd" clip-rule="evenodd" d="M221.231 112.507V57.0867H222.19V112.507H221.231Z" fill="#0093C9"/>
<path fill-rule="evenodd" clip-rule="evenodd" d="M226.204 112.507V57.0867H227.162V112.507H226.204Z" fill="#0093C9"/>
<path fill-rule="evenodd" clip-rule="evenodd" d="M226.317 34.7474H212.551V33.7917H226.317V34.7474Z" fill="#ED7000"/>
<path d="M230.766 40.0786H208.049V52.5339H230.766V40.0786Z" fill="#F6F6F6"/>
<path fill-rule="evenodd" clip-rule="evenodd" d="M207.551 39.5808H231.266V53.0314H207.551V39.5808ZM208.549 40.5762V52.0361H230.268V40.5762H208.549Z" fill="#30AF15"/>
<path fill-rule="evenodd" clip-rule="evenodd" d="M255.42 54.0582H246.155V53.1025H255.42V54.0582Z" fill="#0093C9"/>
<path fill-rule="evenodd" clip-rule="evenodd" d="M255.42 59.0299H246.155V58.0742H255.42V59.0299Z" fill="#0093C9"/>
<path fill-rule="evenodd" clip-rule="evenodd" d="M255.42 63.9491H246.155V62.9934H255.42V63.9491Z" fill="#0093C9"/>
<path fill-rule="evenodd" clip-rule="evenodd" d="M253.588 68.6593H246.103V67.7036H253.588V68.6593Z" fill="#0093C9"/>
<path fill-rule="evenodd" clip-rule="evenodd" d="M253.588 73.6307H246.103V72.675H253.588V73.6307Z" fill="#0093C9"/>
<path fill-rule="evenodd" clip-rule="evenodd" d="M253.274 78.4454H245.736V77.4897H253.274V78.4454Z" fill="#0093C9"/>
<path fill-rule="evenodd" clip-rule="evenodd" d="M253.274 83.2601H245.736V82.3044H253.274V83.2601Z" fill="#0093C9"/>
<path fill-rule="evenodd" clip-rule="evenodd" d="M253.274 88.1271H245.736V87.1714H253.274V88.1271Z" fill="#0093C9"/>
<path fill-rule="evenodd" clip-rule="evenodd" d="M253.274 92.9415H245.736V91.9858H253.274V92.9415Z" fill="#0093C9"/>
<path fill-rule="evenodd" clip-rule="evenodd" d="M253.274 97.8087H245.736V96.853H253.274V97.8087Z" fill="#0093C9"/>
<path fill-rule="evenodd" clip-rule="evenodd" d="M174.864 83.28H160.155V82.2847H174.864V83.28Z" fill="#30AF15"/>
<path fill-rule="evenodd" clip-rule="evenodd" d="M174.864 88.9841H160.155V87.9888H174.864V88.9841Z" fill="#30AF15"/>
<path fill-rule="evenodd" clip-rule="evenodd" d="M174.864 94.6885H160.155V93.6931H174.864V94.6885Z" fill="#30AF15"/>
<path fill-rule="evenodd" clip-rule="evenodd" d="M174.864 100.393H160.155V99.3975H174.864V100.393Z" fill="#30AF15"/>
<path fill-rule="evenodd" clip-rule="evenodd" d="M174.864 106.097H160.155V105.102H174.864V106.097Z" fill="#30AF15"/>
<path fill-rule="evenodd" clip-rule="evenodd" d="M174.864 111.802H160.155V110.806H174.864V111.802Z" fill="#30AF15"/>
<path fill-rule="evenodd" clip-rule="evenodd" d="M193.184 83.28H178.476V82.2847H193.184V83.28Z" fill="#30AF15"/>
<path fill-rule="evenodd" clip-rule="evenodd" d="M193.184 88.9841H178.476V87.9888H193.184V88.9841Z" fill="#30AF15"/>
<path fill-rule="evenodd" clip-rule="evenodd" d="M193.184 94.6885H178.476V93.6931H193.184V94.6885Z" fill="#30AF15"/>
<path fill-rule="evenodd" clip-rule="evenodd" d="M193.184 100.393H178.476V99.3975H193.184V100.393Z" fill="#30AF15"/>
<path fill-rule="evenodd" clip-rule="evenodd" d="M193.184 106.097H178.476V105.102H193.184V106.097Z" fill="#30AF15"/>
<path fill-rule="evenodd" clip-rule="evenodd" d="M201.768 115.34H181.093V114.385H201.768V115.34Z" fill="#0093C9"/>
<path fill-rule="evenodd" clip-rule="evenodd" d="M130.26 90.7892V88.4866H131.218V90.7892H130.26Z" fill="#0093C9"/>
<path fill-rule="evenodd" clip-rule="evenodd" d="M136.018 90.7892V88.4866H136.976V90.7892H136.018Z" fill="#0093C9"/>
<path fill-rule="evenodd" clip-rule="evenodd" d="M141.513 90.7892V88.4866H142.471V90.7892H141.513Z" fill="#0093C9"/>
<path fill-rule="evenodd" clip-rule="evenodd" d="M130.364 95.7086V93.4583H131.322V95.7086H130.364Z" fill="#0093C9"/>
<path fill-rule="evenodd" clip-rule="evenodd" d="M136.174 95.7086V93.4583H137.132V95.7086H136.174Z" fill="#0093C9"/>
<path fill-rule="evenodd" clip-rule="evenodd" d="M141.67 95.7086V93.4583H142.628V95.7086H141.67Z" fill="#0093C9"/>
<path fill-rule="evenodd" clip-rule="evenodd" d="M130.364 100.628V98.3252H131.322V100.628H130.364Z" fill="#0093C9"/>
<path fill-rule="evenodd" clip-rule="evenodd" d="M136.174 100.628V98.3252H137.132V100.628H136.174Z" fill="#0093C9"/>
<path fill-rule="evenodd" clip-rule="evenodd" d="M141.67 100.628V98.3252H142.628V100.628H141.67Z" fill="#0093C9"/>
<path fill-rule="evenodd" clip-rule="evenodd" d="M136.174 105.6V103.297H137.132V105.6H136.174Z" fill="#0093C9"/>
<path fill-rule="evenodd" clip-rule="evenodd" d="M141.67 105.6V103.297H142.628V105.6H141.67Z" fill="#0093C9"/>
<path fill-rule="evenodd" clip-rule="evenodd" d="M136.227 110.571V108.268H137.185V110.571H136.227Z" fill="#0093C9"/>
<path fill-rule="evenodd" clip-rule="evenodd" d="M141.723 110.571V108.268H142.681V110.571H141.723Z" fill="#0093C9"/>
<path fill-rule="evenodd" clip-rule="evenodd" d="M136.384 115.647V113.397H137.342V115.647H136.384Z" fill="#0093C9"/>
<path fill-rule="evenodd" clip-rule="evenodd" d="M141.88 115.647V113.397H142.838V115.647H141.88Z" fill="#0093C9"/>
<path fill-rule="evenodd" clip-rule="evenodd" d="M265.47 107.857H252.279V106.901H265.47V107.857Z" fill="#0093C9"/>
<path fill-rule="evenodd" clip-rule="evenodd" d="M237.668 114.228H242.185V118.271H237.668V114.228ZM238.626 115.183V117.315H241.227V115.183H238.626Z" fill="#0093C9"/>
<path fill-rule="evenodd" clip-rule="evenodd" d="M237.668 119.67H242.185V123.713H237.668V119.67ZM238.626 120.626V122.758H241.227V120.626H238.626Z" fill="#0093C9"/>
<path fill-rule="evenodd" clip-rule="evenodd" d="M245.414 114.385H249.932V118.428H245.414V114.385ZM246.372 115.34V117.472H248.973V115.34H246.372Z" fill="#0093C9"/>
<path fill-rule="evenodd" clip-rule="evenodd" d="M245.414 119.775H249.932V123.818H245.414V119.775ZM246.372 120.73V122.862H248.973V120.73H246.372Z" fill="#0093C9"/>
<path fill-rule="evenodd" clip-rule="evenodd" d="M253.108 114.385H257.626V118.428H253.108V114.385ZM254.067 115.34V117.472H256.668V115.34H254.067Z" fill="#0093C9"/>
<path fill-rule="evenodd" clip-rule="evenodd" d="M253.108 119.775H257.626V123.818H253.108V119.775ZM254.067 120.731V122.863H256.668V120.731H254.067Z" fill="#0093C9"/>
<path fill-rule="evenodd" clip-rule="evenodd" d="M260.646 114.385H265.164V118.428H260.646V114.385ZM261.605 115.34V117.472H264.206V115.34H261.605Z" fill="#0093C9"/>
<path fill-rule="evenodd" clip-rule="evenodd" d="M260.646 119.775H265.164V123.818H260.646V119.775ZM261.605 120.731V122.863H264.206V120.731H261.605Z" fill="#0093C9"/>
<path fill-rule="evenodd" clip-rule="evenodd" d="M268.235 114.385H272.753V118.428H268.235V114.385ZM269.194 115.34V117.472H271.795V115.34H269.194Z" fill="#0093C9"/>
<path fill-rule="evenodd" clip-rule="evenodd" d="M268.235 119.775H272.753V123.818H268.235V119.775ZM269.194 120.731V122.863H271.795V120.731H269.194Z" fill="#0093C9"/>
<path fill-rule="evenodd" clip-rule="evenodd" d="M275.931 114.385H280.448V118.428H275.931V114.385ZM276.889 115.34V117.472H279.49V115.34H276.889Z" fill="#0093C9"/>
<path fill-rule="evenodd" clip-rule="evenodd" d="M275.931 119.775H280.448V123.818H275.931V119.775ZM276.889 120.731V122.863H279.49V120.731H276.889Z" fill="#0093C9"/>
<path fill-rule="evenodd" clip-rule="evenodd" d="M259.354 97.9587V103.925H258.396V97.9587H259.354Z" fill="#0093C9"/>
<path fill-rule="evenodd" clip-rule="evenodd" d="M264.99 91.9858H270.084V95.7675H264.99V91.9858ZM265.948 92.9415V94.8118H269.125V92.9415H265.948Z" fill="#30AF15"/>
<path fill-rule="evenodd" clip-rule="evenodd" d="M275.354 91.9858H280.448V95.7675H275.354V91.9858ZM276.313 92.9415V94.8118H279.49V92.9415H276.313Z" fill="#30AF15"/>
<path fill-rule="evenodd" clip-rule="evenodd" d="M264.833 98.7893H269.926V102.571H264.833V98.7893ZM265.791 99.745V101.615H268.968V99.745H265.791Z" fill="#30AF15"/>
<path fill-rule="evenodd" clip-rule="evenodd" d="M275.197 98.7893H280.291V102.571H275.197V98.7893ZM276.155 99.745V101.615H279.332V99.745H276.155Z" fill="#30AF15"/>
<path fill-rule="evenodd" clip-rule="evenodd" d="M291.371 92.0383H296.464V95.82H291.371V92.0383ZM292.329 92.994V94.8643H295.506V92.994H292.329Z" fill="#30AF15"/>
<path fill-rule="evenodd" clip-rule="evenodd" d="M301.788 92.0383H306.881V95.82H301.788V92.0383ZM302.746 92.994V94.8643H305.923V92.994H302.746Z" fill="#30AF15"/>
<path fill-rule="evenodd" clip-rule="evenodd" d="M291.215 98.7893H296.308V102.571H291.215V98.7893ZM292.173 99.745V101.615H295.35V99.745H292.173Z" fill="#30AF15"/>
<path fill-rule="evenodd" clip-rule="evenodd" d="M301.631 98.7893H306.724V102.571H301.631V98.7893ZM302.589 99.745V101.615H305.766V99.745H302.589Z" fill="#30AF15"/>
<path fill-rule="evenodd" clip-rule="evenodd" d="M291.162 105.593H296.255V109.374H291.162V105.593ZM292.12 106.548V108.419H295.297V106.548H292.12Z" fill="#30AF15"/>
<path fill-rule="evenodd" clip-rule="evenodd" d="M301.526 105.593H306.62V109.374H301.526V105.593ZM302.485 106.548V108.419H305.661V106.548H302.485Z" fill="#30AF15"/>
<path fill-rule="evenodd" clip-rule="evenodd" d="M291.005 112.396H296.098V116.177H291.005V112.396ZM291.963 113.351V115.222H295.14V113.351H291.963Z" fill="#30AF15"/>
<path fill-rule="evenodd" clip-rule="evenodd" d="M301.369 112.396H306.462V116.177H301.369V112.396ZM302.327 113.351V115.222H305.504V113.351H302.327Z" fill="#30AF15"/>
<path fill-rule="evenodd" clip-rule="evenodd" d="M291.162 119.147H296.255V122.928H291.162V119.147ZM292.12 120.102V121.973H295.297V120.102H292.12Z" fill="#30AF15"/>
<path fill-rule="evenodd" clip-rule="evenodd" d="M301.526 119.147H306.62V122.928H301.526V119.147ZM302.485 120.102V121.973H305.661V120.102H302.485Z" fill="#30AF15"/>
<path fill-rule="evenodd" clip-rule="evenodd" d="M331.31 78.7527V75.979H332.268V78.7527H331.31Z" fill="#0093C9"/>
<path fill-rule="evenodd" clip-rule="evenodd" d="M331.31 83.6196V80.8459H332.268V83.6196H331.31Z" fill="#0093C9"/>
<path fill-rule="evenodd" clip-rule="evenodd" d="M331.31 88.4865V85.7129H332.268V88.4865H331.31Z" fill="#0093C9"/>
<path fill-rule="evenodd" clip-rule="evenodd" d="M331.31 97.8017V95.0281H332.268V97.8017H331.31Z" fill="#0093C9"/>
<path fill-rule="evenodd" clip-rule="evenodd" d="M331.31 102.721V99.9475H332.268V102.721H331.31Z" fill="#0093C9"/>
<path fill-rule="evenodd" clip-rule="evenodd" d="M331.31 107.483V104.71H332.268V107.483H331.31Z" fill="#0093C9"/>
<path fill-rule="evenodd" clip-rule="evenodd" d="M331.31 112.089V109.315H332.268V112.089H331.31Z" fill="#0093C9"/>
<path fill-rule="evenodd" clip-rule="evenodd" d="M331.31 93.0918V90.3181H332.268V93.0918H331.31Z" fill="#0093C9"/>
<path fill-rule="evenodd" clip-rule="evenodd" d="M336.7 78.7527V75.979H337.658V78.7527H336.7Z" fill="#0093C9"/>
<path fill-rule="evenodd" clip-rule="evenodd" d="M336.7 83.6196V80.8459H337.658V83.6196H336.7Z" fill="#0093C9"/>
<path fill-rule="evenodd" clip-rule="evenodd" d="M336.7 88.4865V85.7129H337.658V88.4865H336.7Z" fill="#0093C9"/>
<path fill-rule="evenodd" clip-rule="evenodd" d="M336.7 97.8017V95.0281H337.658V97.8017H336.7Z" fill="#0093C9"/>
<path fill-rule="evenodd" clip-rule="evenodd" d="M336.7 102.721V99.9475H337.658V102.721H336.7Z" fill="#0093C9"/>
<path fill-rule="evenodd" clip-rule="evenodd" d="M336.7 107.483V104.71H337.658V107.483H336.7Z" fill="#0093C9"/>
<path fill-rule="evenodd" clip-rule="evenodd" d="M336.7 112.089V109.315H337.658V112.089H336.7Z" fill="#0093C9"/>
<path fill-rule="evenodd" clip-rule="evenodd" d="M336.7 93.0918V90.3181H337.658V93.0918H336.7Z" fill="#0093C9"/>
<path fill-rule="evenodd" clip-rule="evenodd" d="M342.668 78.7527V75.979H343.626V78.7527H342.668Z" fill="#0093C9"/>
<path fill-rule="evenodd" clip-rule="evenodd" d="M342.668 83.6196V80.8459H343.626V83.6196H342.668Z" fill="#0093C9"/>
<path fill-rule="evenodd" clip-rule="evenodd" d="M342.668 88.4865V85.7129H343.626V88.4865H342.668Z" fill="#0093C9"/>
<path fill-rule="evenodd" clip-rule="evenodd" d="M342.668 93.0918V90.3181H343.626V93.0918H342.668Z" fill="#0093C9"/>
<path fill-rule="evenodd" clip-rule="evenodd" d="M347.169 102.093V99.2671H348.127V102.093H347.169Z" fill="#A52828"/>
<path fill-rule="evenodd" clip-rule="evenodd" d="M352.299 102.093V99.2671H353.257V102.093H352.299Z" fill="#A52828"/>
<path fill-rule="evenodd" clip-rule="evenodd" d="M357.48 102.093V99.2671H358.439V102.093H357.48Z" fill="#A52828"/>
<path fill-rule="evenodd" clip-rule="evenodd" d="M347.117 106.28V103.506H348.075V106.28H347.117Z" fill="#A52828"/>
<path fill-rule="evenodd" clip-rule="evenodd" d="M352.246 106.28V103.506H353.204V106.28H352.246Z" fill="#A52828"/>
<path fill-rule="evenodd" clip-rule="evenodd" d="M357.429 106.28V103.506H358.387V106.28H357.429Z" fill="#A52828"/>
<path fill-rule="evenodd" clip-rule="evenodd" d="M347.064 110.728V107.954H348.023V110.728H347.064Z" fill="#A52828"/>
<path fill-rule="evenodd" clip-rule="evenodd" d="M352.194 110.728V107.954H353.153V110.728H352.194Z" fill="#A52828"/>
<path fill-rule="evenodd" clip-rule="evenodd" d="M357.376 110.728V107.954H358.334V110.728H357.376Z" fill="#A52828"/>
<path fill-rule="evenodd" clip-rule="evenodd" d="M347.117 114.915V112.089H348.075V114.915H347.117Z" fill="#A52828"/>
<path fill-rule="evenodd" clip-rule="evenodd" d="M352.246 114.915V112.089H353.204V114.915H352.246Z" fill="#A52828"/>
<path fill-rule="evenodd" clip-rule="evenodd" d="M357.429 114.915V112.089H358.387V114.915H357.429Z" fill="#A52828"/>
<path fill-rule="evenodd" clip-rule="evenodd" d="M347.117 118.892V116.066H348.075V118.892H347.117Z" fill="#A52828"/>
<path fill-rule="evenodd" clip-rule="evenodd" d="M352.246 118.892V116.066H353.204V118.892H352.246Z" fill="#A52828"/>
<path fill-rule="evenodd" clip-rule="evenodd" d="M357.429 118.892V116.066H358.387V118.892H357.429Z" fill="#A52828"/>
<path fill-rule="evenodd" clip-rule="evenodd" d="M347.117 123.183V120.357H348.075V123.183H347.117Z" fill="#A52828"/>
<path fill-rule="evenodd" clip-rule="evenodd" d="M352.246 123.183V120.357H353.204V123.183H352.246Z" fill="#A52828"/>
<path fill-rule="evenodd" clip-rule="evenodd" d="M357.429 123.183V120.357H358.387V123.183H357.429Z" fill="#A52828"/>
<path fill-rule="evenodd" clip-rule="evenodd" d="M320.945 95.0281V34.5835H321.904V95.0281H320.945Z" fill="#A52828"/>
<path fill-rule="evenodd" clip-rule="evenodd" d="M327.436 65.3553V34.5835H328.394V65.3553H327.436Z" fill="#A52828"/>
<path fill-rule="evenodd" clip-rule="evenodd" d="M333.56 61.4303V34.5835H334.518V61.4303H333.56Z" fill="#A52828"/>
<path fill-rule="evenodd" clip-rule="evenodd" d="M339.266 61.4303V34.5835H340.224V61.4303H339.266Z" fill="#A52828"/>
<path fill-rule="evenodd" clip-rule="evenodd" d="M330.959 5.01538V14.697H330.001V5.01538H330.959Z" fill="#ED7000"/>
<path fill-rule="evenodd" clip-rule="evenodd" d="M84.6689 104.337H91.1755V109.113H84.6689V104.337ZM85.6272 105.292V108.157H90.2173V105.292H85.6272Z" fill="#A52828"/>
<path fill-rule="evenodd" clip-rule="evenodd" d="M94.5615 104.337H101.068V109.113H94.5615V104.337ZM95.5197 105.292V108.157H100.11V105.292H95.5197Z" fill="#A52828"/>
<path fill-rule="evenodd" clip-rule="evenodd" d="M84.6689 110.093H91.1755V114.869H84.6689V110.093ZM85.6272 111.049V113.914H90.2173V111.049H85.6272Z" fill="#A52828"/>
<path fill-rule="evenodd" clip-rule="evenodd" d="M94.5615 110.093H101.068V114.869H94.5615V110.093ZM95.5197 111.049V113.914H100.11V111.049H95.5197Z" fill="#A52828"/>
<path fill-rule="evenodd" clip-rule="evenodd" d="M84.6689 116.216H91.1755V120.992H84.6689V116.216ZM85.6272 117.172V120.037H90.2173V117.172H85.6272Z" fill="#A52828"/>
<path fill-rule="evenodd" clip-rule="evenodd" d="M94.5615 116.216H101.068V120.992H94.5615V116.216ZM95.5197 117.172V120.036H100.11V117.172H95.5197Z" fill="#A52828"/>
<path fill-rule="evenodd" clip-rule="evenodd" d="M108.537 104.337H115.044V109.113H108.537V104.337ZM109.495 105.292V108.157H114.085V105.292H109.495Z" fill="#A52828"/>
<path fill-rule="evenodd" clip-rule="evenodd" d="M118.378 104.337H124.885V109.113H118.378V104.337ZM119.336 105.292V108.157H123.926V105.292H119.336Z" fill="#A52828"/>
<path fill-rule="evenodd" clip-rule="evenodd" d="M108.537 110.093H115.044V114.869H108.537V110.093ZM109.495 111.049V113.914H114.085V111.049H109.495Z" fill="#A52828"/>
<path fill-rule="evenodd" clip-rule="evenodd" d="M118.378 110.093H124.885V114.869H118.378V110.093ZM119.336 111.049V113.914H123.926V111.049H119.336Z" fill="#A52828"/>
<path fill-rule="evenodd" clip-rule="evenodd" d="M108.537 116.216H115.044V120.992H108.537V116.216ZM109.495 117.172V120.036H114.085V117.172H109.495Z" fill="#A52828"/>
<path fill-rule="evenodd" clip-rule="evenodd" d="M118.378 116.216H124.885V120.992H118.378V116.216ZM119.336 117.172V120.037H123.926V117.172H119.336Z" fill="#A52828"/>
<path fill-rule="evenodd" clip-rule="evenodd" d="M68.0234 80.9961H85.6267V84.2021H68.0234V80.9961ZM68.9817 81.9518V83.2464H84.6685V81.9518H68.9817Z" fill="#0093C9"/>
<path fill-rule="evenodd" clip-rule="evenodd" d="M68.0234 86.9097H85.6267V90.1157H68.0234V86.9097ZM68.9817 87.8654V89.16H84.6685V87.8654H68.9817Z" fill="#0093C9"/>
<path fill-rule="evenodd" clip-rule="evenodd" d="M67.8145 92.8232H85.4178V96.0292H67.8145V92.8232ZM68.7727 93.7789V95.0736H84.4595V93.7789H68.7727Z" fill="#0093C9"/>
<path fill-rule="evenodd" clip-rule="evenodd" d="M68.0234 98.1614H85.6267V101.367H68.0234V98.1614ZM68.9817 99.1171V100.412H84.6685V99.1171H68.9817Z" fill="#0093C9"/>
<path fill-rule="evenodd" clip-rule="evenodd" d="M67.8145 104.651H78.1421V107.857H67.8145V104.651ZM68.7727 105.606V106.901H77.1839V105.606H68.7727Z" fill="#0093C9"/>
<path fill-rule="evenodd" clip-rule="evenodd" d="M67.8145 110.407H78.1421V113.613H67.8145V110.407ZM68.7727 111.363V112.658H77.1839V111.363H68.7727Z" fill="#0093C9"/>
<path fill-rule="evenodd" clip-rule="evenodd" d="M67.8145 116.216H78.1421V119.422H67.8145V116.216ZM68.7727 117.172V118.467H77.1839V117.172H68.7727Z" fill="#0093C9"/>
<path fill-rule="evenodd" clip-rule="evenodd" d="M72.6816 66.4475H75.943V70.5887H74.9848V67.4032H73.6399V70.9027H72.6816V66.4475Z" fill="#0093C9"/>
<path fill-rule="evenodd" clip-rule="evenodd" d="M77.1309 66.4475H80.3399V70.9027H79.3816V67.4032H78.0891V70.9027H77.1309V66.4475Z" fill="#0093C9"/>
<path fill-rule="evenodd" clip-rule="evenodd" d="M114.033 92.3H118.655V95.5515H117.697V93.2557H114.991V95.3946H114.033V92.3Z" fill="#ED7000"/>
<path d="M51.0195 124.335V116.485L57.8241 112.193L65.3092 116.485V124.335H51.0195Z" fill="#F6F6F6"/>
<path fill-rule="evenodd" clip-rule="evenodd" d="M57.8118 111.612L65.8082 116.197V124.832H50.5205V116.211L57.8118 111.612ZM57.8364 112.774L51.5185 116.759V123.837H64.8102V116.773L57.8364 112.774Z" fill="#30AF15"/>
<path fill-rule="evenodd" clip-rule="evenodd" d="M54.0479 118.414H57.7803V122.719H54.0479V118.414ZM55.0061 119.37V121.763H56.822V119.37H55.0061Z" fill="#0093C9"/>
<path fill-rule="evenodd" clip-rule="evenodd" d="M58.6016 118.414H62.334V122.719H58.6016V118.414ZM59.5598 119.37V121.763H61.3757V119.37H59.5598Z" fill="#0093C9"/>
<path fill-rule="evenodd" clip-rule="evenodd" d="M110.545 53.3217C112.16 52.5285 114.355 52.1516 116.568 53.3146C118.71 54.4402 119.444 55.7387 119.556 56.8492C119.581 57.0983 119.574 57.3302 119.548 57.5393C120.842 56.9778 121.869 56.7565 122.688 56.7899C123.745 56.833 124.434 57.3004 124.846 57.9312C125.24 58.5334 125.356 59.2442 125.384 59.7685C125.39 59.8658 125.392 59.9585 125.392 60.0451C128.032 59.5439 129.537 60.1689 130.366 61.1081C130.796 61.5954 131.007 62.1298 131.111 62.5355C131.164 62.7393 131.19 62.9145 131.204 63.041C131.211 63.1045 131.214 63.1562 131.216 63.1937C131.216 63.2028 131.217 63.2112 131.217 63.2186C131.217 63.2264 131.218 63.2333 131.218 63.2392L131.218 63.2535L131.218 63.2585L131.218 63.2604V63.2612C131.218 63.2616 131.218 63.2619 130.739 63.2619L131.218 63.2619V63.7398H97.3955L97.3402 63.3249C97.1726 62.0681 97.3463 61.0265 97.9942 60.1628C98.627 59.3191 99.6613 58.7162 101.053 58.2079C102.579 57.6505 104.404 58.0417 105.771 58.5124C106.468 58.7527 107.075 59.0243 107.508 59.2357C107.525 59.2439 107.541 59.252 107.558 59.26C107.577 59.0322 107.6 58.765 107.623 58.4812C107.689 57.6604 107.752 56.7243 107.752 56.197C107.752 55.9317 107.866 55.6671 108.001 55.4423C108.144 55.2054 108.343 54.9573 108.583 54.7129C109.063 54.2236 109.739 53.7179 110.545 53.3217ZM107.727 60.4296L107.726 60.4288L107.719 60.4247C107.712 60.4209 107.702 60.415 107.688 60.4071C107.66 60.3914 107.618 60.368 107.563 60.3381C107.452 60.2785 107.29 60.1934 107.087 60.094C106.679 59.8949 106.108 59.64 105.458 59.4157C104.128 58.9576 102.578 58.6684 101.382 59.1053C100.052 59.5914 99.2278 60.1136 98.7614 60.7353C98.3692 61.2581 98.1921 61.9034 98.2485 62.7841H130.186C130.185 62.7805 130.184 62.7769 130.183 62.7732C130.105 62.4675 129.949 62.0829 129.646 61.7394C129.073 61.089 127.819 60.4277 124.989 61.1098L124.295 61.277L124.403 60.5741L124.403 60.5735L124.403 60.573L124.404 60.5649C124.405 60.557 124.407 60.5439 124.409 60.5263C124.413 60.491 124.418 60.4375 124.423 60.3694C124.433 60.2327 124.439 60.04 124.427 59.8196C124.403 59.3675 124.304 58.8518 124.043 58.4532C123.801 58.0831 123.398 57.7753 122.649 57.7448C121.866 57.7129 120.694 57.9855 118.972 58.8719L117.362 59.701L118.349 58.1894C118.349 58.1898 118.349 58.1896 118.349 58.1888C118.35 58.1873 118.353 58.1835 118.356 58.1775C118.363 58.1656 118.375 58.145 118.389 58.1166C118.418 58.0596 118.458 57.972 118.497 57.8595C118.573 57.6336 118.64 57.3158 118.603 56.9447C118.531 56.2366 118.062 55.1801 116.121 54.1601C114.251 53.1774 112.39 53.4808 110.969 54.1791C110.257 54.5287 109.67 54.9714 109.267 55.3816C109.065 55.587 108.918 55.7763 108.824 55.9332C108.777 56.0114 108.747 56.0756 108.729 56.1249C108.712 56.1722 108.711 56.195 108.71 56.1969C108.71 56.197 108.71 56.197 108.71 56.1969C108.71 56.7686 108.643 57.7427 108.578 58.5573C108.545 58.9681 108.512 59.3443 108.488 59.6177C108.475 59.7544 108.465 59.8655 108.458 59.9426L108.45 60.0315L108.447 60.0623L108.447 60.0629L108.375 60.8079L107.727 60.4296Z" fill="#0093C9"/>
<path fill-rule="evenodd" clip-rule="evenodd" d="M287.298 26.8422C288.502 26.244 290.149 25.9589 291.812 26.8342C293.404 27.6722 293.98 28.6557 294.073 29.5215C294.086 29.6374 294.089 29.7485 294.086 29.8538C294.957 29.4997 295.667 29.357 296.249 29.383C297.061 29.4194 297.599 29.7849 297.92 30.2828C298.221 30.7516 298.304 31.2974 298.322 31.6898C298.323 31.7064 298.323 31.7227 298.324 31.7389C300.194 31.4149 301.305 31.8745 301.934 32.5951C302.265 32.9746 302.427 33.3894 302.507 33.7021C302.547 33.8595 302.567 33.9949 302.577 34.0934C302.583 34.1427 302.585 34.1833 302.587 34.2131C302.588 34.2281 302.588 34.2404 302.588 34.2498L302.588 34.2618L302.588 34.2662L302.588 34.2688C302.588 34.2691 302.588 34.2695 302.109 34.2695L302.588 34.2695L302.588 34.7473H277.567L277.505 34.3409C277.362 33.3964 277.482 32.587 277.988 31.9103C278.477 31.2546 279.278 30.7956 280.329 30.4182C281.512 29.9936 282.891 30.2911 283.9 30.6385C284.352 30.7941 284.751 30.9675 285.058 31.1133C285.069 30.9989 285.08 30.8755 285.092 30.7471C285.144 30.1558 285.194 29.4828 285.194 29.0885C285.194 28.8604 285.288 28.6415 285.391 28.4644C285.501 28.2767 285.653 28.084 285.833 27.8972C286.193 27.523 286.698 27.1407 287.298 26.8422ZM285.22 32.2736L285.22 32.2732L285.215 32.2705L285.194 32.2582C285.174 32.2471 285.144 32.2303 285.105 32.2088C285.026 32.1659 284.909 32.1044 284.763 32.0325C284.469 31.8883 284.058 31.7039 283.587 31.5419C282.62 31.209 281.512 31.0094 280.654 31.3174C279.664 31.6727 279.077 32.051 278.756 32.4813C278.506 32.8152 278.383 33.2263 278.411 33.7916H301.535C301.472 33.6096 301.372 33.4068 301.211 33.2225C300.834 32.7897 299.974 32.2992 297.931 32.7973L297.23 32.9682L297.344 32.2588L297.344 32.2581L297.345 32.2539C297.345 32.2488 297.347 32.2401 297.348 32.2281C297.351 32.2041 297.355 32.1669 297.359 32.1193C297.366 32.0235 297.372 31.8882 297.365 31.7335C297.35 31.413 297.283 31.0626 297.113 30.7987C296.962 30.5639 296.709 30.3603 296.206 30.3378C295.669 30.3137 294.837 30.4983 293.586 31.1362L292.016 31.937L292.962 30.4576L292.964 30.453C292.968 30.4462 292.975 30.4333 292.985 30.4148C293.003 30.3776 293.029 30.3189 293.054 30.2428C293.105 30.0898 293.148 29.8746 293.121 29.6237C293.07 29.155 292.756 28.4115 291.365 27.6795C290.045 26.9848 288.733 27.1969 287.726 27.6976C287.221 27.9486 286.806 28.2663 286.524 28.5594C286.382 28.7061 286.282 28.8389 286.219 28.9455C286.161 29.0458 286.154 29.0927 286.153 29.0926C286.153 29.0926 286.153 29.0912 286.153 29.0885C286.153 29.5315 286.098 30.2453 286.046 30.8315C286.02 31.1283 285.993 31.3984 285.974 31.5943C285.964 31.6923 285.955 31.7719 285.95 31.827L285.943 31.8907L285.941 31.9129L285.861 32.6508L285.22 32.2736Z" fill="#0093C9"/>
<path fill-rule="evenodd" clip-rule="evenodd" d="M180.675 27.6188C181.674 27.0311 182.653 26.8774 183.572 27.0247C184.658 27.1986 185.606 27.7831 186.373 28.4463C187.142 29.112 187.758 29.8831 188.179 30.4813C188.39 30.7817 188.555 31.0417 188.667 31.2276C188.723 31.3206 188.767 31.3953 188.796 31.4475C188.811 31.4736 188.822 31.4941 188.83 31.5084L188.839 31.5253L188.842 31.5302L188.843 31.5322C188.843 31.5324 188.843 31.5326 188.421 31.7576L188.843 31.5322L189.219 32.2354H150.574L150.52 31.8186C150.28 29.96 151.312 28.5984 152.616 27.7994C153.01 27.5261 153.552 27.4406 154.054 27.4229C154.583 27.4043 155.163 27.4592 155.691 27.5364C156.221 27.6141 156.714 27.7167 157.073 27.7996C157.253 27.8411 157.4 27.8779 157.503 27.9044C157.555 27.9177 157.595 27.9284 157.623 27.9359L157.655 27.9447L157.664 27.9471L157.667 27.948C157.667 27.948 157.667 27.9481 157.538 28.4082L157.667 27.948L157.741 27.9686L158.501 28.4749C158.49 28.2641 158.494 28.0451 158.53 27.8627C158.531 27.8558 158.532 27.8486 158.532 27.841C158.56 27.5735 158.627 26.9358 159.089 26.2768C159.583 25.5704 160.483 24.9008 162.092 24.5404C163.855 24.1452 165.184 25.0746 166.021 26.0018C166.151 26.1461 166.271 26.2922 166.381 26.436C166.408 25.7219 166.565 24.8178 167.38 23.9367C168.289 22.9544 169.96 22.0623 172.981 21.3999C174.585 21.0482 175.908 21.3092 176.977 21.9226C178.034 22.529 178.809 23.4604 179.371 24.4025C179.934 25.3463 180.298 26.3261 180.521 27.0644C180.583 27.2686 180.634 27.4552 180.675 27.6188ZM166.414 28.3328L166.412 28.3272C166.409 28.3218 166.405 28.3129 166.4 28.3009C166.389 28.2768 166.372 28.2401 166.349 28.1928C166.303 28.0979 166.232 27.961 166.139 27.7978C165.95 27.4697 165.672 27.0436 165.308 26.6411C164.575 25.8283 163.574 25.1877 162.302 25.4728C160.874 25.7927 160.204 26.3529 159.874 26.824C159.556 27.2779 159.511 27.7063 159.484 27.9504C159.483 27.9642 159.481 27.9773 159.48 27.9899L159.477 28.0155L159.472 28.0406C159.439 28.1852 159.452 28.4866 159.493 28.8148C159.511 28.9657 159.533 29.1035 159.55 29.2039C159.558 29.2538 159.566 29.2941 159.571 29.3214L159.577 29.3523L159.578 29.3598L159.578 29.3613L159.805 30.4938L157.337 28.849C157.317 28.8436 157.292 28.8371 157.263 28.8297C157.167 28.8049 157.028 28.7701 156.857 28.7307C156.514 28.6516 156.048 28.5547 155.552 28.482C155.052 28.4088 154.536 28.3622 154.088 28.378C153.621 28.3944 153.313 28.477 153.159 28.5874L153.144 28.5976L153.129 28.6068C152.146 29.2053 151.449 30.1055 151.444 31.2797H187.566C187.513 31.201 187.456 31.1176 187.395 31.0304C187 30.4691 186.435 29.7651 185.745 29.1682C185.052 28.5689 184.264 28.1035 183.42 27.9683C182.597 27.8363 181.668 28.0102 180.651 28.7875L180.018 29.2716L179.887 28.487L179.887 28.4838L179.884 28.4699C179.882 28.4571 179.878 28.4372 179.873 28.4108C179.863 28.3578 179.847 28.2787 179.824 28.1775C179.779 27.975 179.707 27.6849 179.603 27.3398C179.394 26.6472 179.058 25.7462 178.548 24.8911C178.037 24.0343 177.366 23.2484 176.499 22.751C175.645 22.2604 174.566 22.0309 173.187 22.3333C170.241 22.9793 168.798 23.8142 168.084 24.585C167.395 25.3294 167.334 26.07 167.334 26.7336V30.4997L166.414 28.3335L166.414 28.3328Z" fill="#0093C9"/>
<path fill-rule="evenodd" clip-rule="evenodd" d="M382.941 23.0827C384.761 22.0241 387.325 21.3366 390.513 22.4081C393.672 23.4698 395.082 25.2004 395.675 26.7244C395.951 27.4341 396.043 28.0824 396.063 28.5708L396.345 28.4152C397.288 27.8268 398.741 27.7888 400.057 28.0438C401.388 28.3019 402.759 28.8946 403.539 29.7612C404.361 30.6491 404.388 31.7437 404.245 32.5478C404.213 32.7235 404.173 32.8892 404.13 33.0408C404.532 32.9468 405.046 32.8421 405.634 32.7565C407.058 32.5494 408.949 32.4497 410.739 32.9176C412.68 33.4253 413.458 34.9337 413.748 36.2259C413.892 36.8714 413.921 37.4815 413.915 37.927C413.912 38.1508 413.9 38.3358 413.889 38.4663C413.883 38.5316 413.878 38.5834 413.873 38.6199C413.871 38.6381 413.869 38.6525 413.868 38.6628L413.866 38.6752L413.866 38.6791L413.865 38.6804L413.865 38.6809C413.865 38.6812 413.865 38.6814 413.391 38.6131L413.865 38.6809L413.806 39.091H362.72L362.667 38.674L363.142 38.6131C362.667 38.674 362.667 38.6743 362.667 38.674L362.666 38.6729L362.666 38.6711L362.666 38.6656L362.663 38.6472C362.662 38.6317 362.659 38.6098 362.656 38.5818C362.651 38.5257 362.644 38.4453 362.637 38.3435C362.624 38.1401 362.613 37.8506 362.62 37.4992C362.634 36.7982 362.719 35.841 363.008 34.8258C363.59 32.7823 365.011 30.4865 368.306 29.6208L368.31 29.6198C371.52 28.8038 374.333 29.3766 376.335 30.1473C377.336 30.5328 378.138 30.969 378.691 31.3102C378.754 31.3492 378.814 31.387 378.871 31.4234C378.873 31.4103 378.874 31.3972 378.875 31.3839C378.931 30.8701 379.01 30.1767 379.102 29.4596C379.194 28.7436 379.3 27.9987 379.41 27.3839C379.465 27.077 379.522 26.7963 379.58 26.5651C379.634 26.3495 379.701 26.128 379.789 25.9736L379.796 25.9628L379.802 25.9523C380.067 25.5401 381.139 24.1311 382.941 23.0827ZM378.962 32.652L378.961 32.6513L378.953 32.6453C378.946 32.6396 378.934 32.6305 378.918 32.6183C378.886 32.5939 378.837 32.5571 378.772 32.51C378.64 32.4159 378.444 32.2811 378.187 32.1231C377.674 31.8068 376.925 31.3992 375.99 31.0389C374.118 30.3183 371.514 29.7921 368.549 30.5454C365.669 31.3024 364.447 33.2712 363.93 35.0869C363.669 36.0015 363.591 36.8727 363.578 37.5177C363.574 37.7604 363.578 37.9696 363.586 38.1353H412.951C412.954 38.0681 412.956 37.9941 412.957 37.9141C412.962 37.5174 412.936 36.9859 412.812 36.4343C412.565 35.3323 411.956 34.2241 410.496 33.8421C408.883 33.4204 407.136 33.5038 405.772 33.7022C405.094 33.8009 404.52 33.9266 404.116 34.0274C403.914 34.0777 403.755 34.1217 403.648 34.1528C403.594 34.1684 403.554 34.1807 403.527 34.1889L403.497 34.1981L403.491 34.2002L403.489 34.2006L402.343 34.5724L402.92 33.518L402.921 33.5174L402.921 33.5159L402.928 33.5026C402.935 33.4899 402.945 33.4695 402.958 33.4423C402.985 33.3878 403.022 33.3061 403.063 33.2028C403.146 32.9948 403.243 32.7063 403.301 32.3802C403.419 31.72 403.369 30.9845 402.833 30.4076L402.83 30.4045L402.827 30.4014C402.245 29.7521 401.105 29.2206 399.874 28.9819C398.631 28.741 397.474 28.8322 396.846 29.2303L396.833 29.2382L394.873 30.316L395.072 29.312L395.072 29.3112L395.072 29.3101L395.073 29.3076C395.073 29.3026 395.075 29.2935 395.077 29.2806C395.081 29.2547 395.086 29.2135 395.092 29.1586C395.103 29.0487 395.113 28.8846 395.107 28.6794C395.097 28.2686 395.026 27.6985 394.781 27.0698C394.301 25.8332 393.121 24.293 390.207 23.3137C387.323 22.3443 385.046 22.965 383.424 23.9082C381.807 24.8485 380.842 26.1123 380.618 26.4544C380.599 26.4916 380.56 26.597 380.51 26.7978C380.459 26.9987 380.406 27.2553 380.353 27.5518C380.248 28.1439 380.144 28.8709 380.053 29.581C379.962 30.29 379.884 30.9768 379.828 31.4868C379.8 31.7417 379.778 31.9521 379.763 32.0987C379.756 32.172 379.75 32.2293 379.746 32.2682L379.74 32.3272L379.654 33.2116L378.962 32.6523L378.962 32.652Z" fill="#0093C9"/>
<path fill-rule="evenodd" clip-rule="evenodd" d="M400.142 58.3307C401.15 58.1068 402.03 58.1534 402.787 58.3767C403.664 58.6349 404.348 59.1205 404.866 59.6418C405.382 60.1617 405.74 60.7237 405.968 61.1522C406.083 61.3673 406.166 61.5514 406.222 61.6835C406.249 61.7496 406.27 61.8029 406.284 61.8408C406.291 61.8598 406.297 61.8749 406.301 61.8859L406.305 61.8991L406.307 61.9034L406.308 61.9055C406.308 61.9057 406.308 61.906 405.854 62.0583L406.308 61.906L406.52 62.5362H376.441L376.429 62.0702L376.908 62.0583C376.429 62.0702 376.429 62.0699 376.429 62.0696L376.429 62.069L376.429 62.0675L376.429 62.0639L376.429 62.0544C376.429 62.0471 376.429 62.0377 376.429 62.0264C376.429 62.0038 376.43 61.9735 376.433 61.9363C376.438 61.862 376.448 61.7597 376.47 61.6366C376.513 61.3911 376.603 61.0584 376.79 60.6996C377.172 59.9673 377.934 59.1734 379.398 58.7716C380.827 58.3794 381.943 58.5148 382.715 58.7648C382.936 58.8363 383.128 58.9168 383.289 58.9957C383.362 58.7375 383.466 58.4283 383.611 58.1159C383.962 57.3591 384.645 56.3995 385.859 56.3995C386.832 56.3995 387.69 56.58 388.303 56.7589C388.421 56.7936 388.531 56.8282 388.631 56.8617C388.683 56.6039 388.792 56.3076 389.002 56.0001C389.586 55.1441 390.879 54.2962 393.578 53.8419C394.986 53.6049 396.131 53.7892 397.051 54.2258C397.966 54.6604 398.627 55.329 399.097 56.0114C399.566 56.6924 399.854 57.3975 400.025 57.9278C400.072 58.0762 400.111 58.2119 400.142 58.3307ZM388.896 57.988L388.886 57.9837C388.878 57.9799 388.864 57.9737 388.846 57.9656C388.809 57.9492 388.752 57.925 388.678 57.8955C388.528 57.8365 388.309 57.7565 388.034 57.6761C387.482 57.5149 386.717 57.3552 385.859 57.3552C385.241 57.3552 384.797 57.8348 384.481 58.5171C384.331 58.8414 384.23 59.1708 384.167 59.4222C384.135 59.547 384.114 59.6504 384.1 59.7214C384.093 59.7569 384.088 59.7841 384.086 59.8017L384.082 59.8208L384.082 59.8243L384.082 59.8249L383.954 60.7034L383.291 60.1146L383.287 60.1109C383.281 60.1061 383.27 60.0972 383.254 60.085C383.221 60.0606 383.168 60.0231 383.095 59.9785C382.949 59.8893 382.723 59.772 382.42 59.6738C381.818 59.4789 380.893 59.3526 379.652 59.6931C378.447 60.024 377.9 60.643 377.64 61.1405C377.558 61.2983 377.502 61.4486 377.465 61.5805H405.111C404.913 61.2106 404.61 60.7417 404.185 60.3144C403.754 59.8806 403.205 59.4962 402.516 59.2932C401.831 59.0913 400.977 59.06 399.919 59.3761L399.391 59.5339L399.308 58.991L399.308 58.9902L399.307 58.9817C399.305 58.9739 399.303 58.9611 399.3 58.9438C399.294 58.9091 399.283 58.8562 399.268 58.788C399.237 58.6515 399.188 58.4545 399.112 58.2195C398.96 57.7473 398.708 57.1343 398.307 56.5528C397.908 55.9726 397.367 55.4344 396.639 55.0888C395.915 54.7453 394.973 54.5764 393.737 54.7842C391.15 55.2196 390.165 55.9939 389.794 56.5379C389.609 56.8088 389.56 57.0457 389.55 57.204C389.545 57.2847 389.551 57.3473 389.557 57.3855C389.559 57.4045 389.562 57.4172 389.563 57.4227C389.564 57.4229 389.564 57.4232 389.564 57.4234L389.888 58.4658L388.896 57.9884L388.896 57.988Z" fill="#0093C9"/>
<path fill-rule="evenodd" clip-rule="evenodd" d="M260.132 23.1183L260.757 22.394L264.889 25.9422L268.606 22.6601L269.242 23.3756L264.898 27.2108L260.132 23.1183Z" fill="#0093C9"/>
<path fill-rule="evenodd" clip-rule="evenodd" d="M236.768 26.1075L237.222 25.2661L240.432 26.9904L242.275 25.332L242.916 26.0416L240.572 28.1512L236.768 26.1075Z" fill="#0093C9"/>
<path fill-rule="evenodd" clip-rule="evenodd" d="M361.929 76.6349L362.47 75.8462L365.45 77.8799L367.577 75.8919L368.232 76.5892L365.544 79.1019L361.929 76.6349Z" fill="#0093C9"/>
<path fill-rule="evenodd" clip-rule="evenodd" d="M264.31 82.3044H280.814V88.3751H289.487V82.3044H307.09V88.8461H317.977V133.186H285.883V132.23H317.019V89.8018H306.132V83.2601H290.445V89.3308H279.856V83.2601H265.268V89.5924H254.067V103.925H253.108V88.6367H264.31V82.3044Z" fill="#A52828"/>
<path fill-rule="evenodd" clip-rule="evenodd" d="M251.8 103.447H265.949V106.901H288.09V112.2H286.363V133.186H231.229V112.2H229.659V106.901H251.8V103.447ZM252.759 104.403V107.857H230.617V111.245H232.188V132.23H285.405V111.245H287.132V107.857H264.991V104.403H252.759Z" fill="#0093C9"/>
<path fill-rule="evenodd" clip-rule="evenodd" d="M85.0347 94.9167H100.806V100.412H108.694V94.9167H124.517V100.464H132.735V133.186H77.1309V100.464H85.0347V94.9167ZM85.9929 95.8724V101.42H78.0891V132.23H131.777V101.42H123.559V95.8724H109.652V101.367H99.8478V95.8724H85.9929Z" fill="#ED7000"/>
<path fill-rule="evenodd" clip-rule="evenodd" d="M392.44 107.47L385.934 107.47L385.934 102.694L392.44 102.694L392.44 107.47ZM391.482 106.514L391.482 103.65L386.892 103.65L386.892 106.514L391.482 106.514Z" fill="#0093C9"/>
<path fill-rule="evenodd" clip-rule="evenodd" d="M382.536 107.47L376.03 107.47L376.03 102.694L382.536 102.694L382.536 107.47ZM381.578 106.514L381.578 103.65L376.988 103.65L376.988 106.514L381.578 106.514Z" fill="#0093C9"/>
<path fill-rule="evenodd" clip-rule="evenodd" d="M392.44 113.216L385.934 113.216L385.934 108.44L392.44 108.44L392.44 113.216ZM391.482 112.261L391.482 109.396L386.892 109.396L386.892 112.261L391.482 112.261Z" fill="#0093C9"/>
<path fill-rule="evenodd" clip-rule="evenodd" d="M382.536 113.216L376.03 113.216L376.03 108.44L382.536 108.44L382.536 113.216ZM381.578 112.261L381.578 109.396L376.988 109.396L376.988 112.261L381.578 112.261Z" fill="#0093C9"/>
<path fill-rule="evenodd" clip-rule="evenodd" d="M392.44 119.383L385.934 119.383L385.934 114.607L392.44 114.607L392.44 119.383ZM391.482 118.428L391.482 115.563L386.892 115.563L386.892 118.428L391.482 118.428Z" fill="#0093C9"/>
<path fill-rule="evenodd" clip-rule="evenodd" d="M382.536 119.383L376.03 119.383L376.03 114.607L382.536 114.607L382.536 119.383ZM381.578 118.428L381.578 115.563L376.988 115.563L376.988 118.428L381.578 118.428Z" fill="#0093C9"/>
<path fill-rule="evenodd" clip-rule="evenodd" d="M392.44 125.355L385.934 125.355L385.934 120.579L392.44 120.579L392.44 125.355ZM391.482 124.399L391.482 121.535L386.892 121.535L386.892 124.399L391.482 124.399Z" fill="#0093C9"/>
<path fill-rule="evenodd" clip-rule="evenodd" d="M382.536 125.355L376.03 125.355L376.03 120.579L382.536 120.579L382.536 125.355ZM381.578 124.399L381.578 121.535L376.988 121.535L376.988 124.399L381.578 124.399Z" fill="#0093C9"/>
<path fill-rule="evenodd" clip-rule="evenodd" d="M382.291 90.665H386.861V93.7595H385.903V91.6207H383.249V93.9165H382.291V90.665Z" fill="#ED7000"/>
<path fill-rule="evenodd" clip-rule="evenodd" d="M376.429 93.2817H392.253V98.7767H400.141V93.2817H415.912V98.829H423.764V131.551H368.159V98.829H376.429V93.2817ZM377.388 94.2374V99.7847H369.117V130.595H422.805V99.7847H414.954V94.2374H401.099V99.7324H391.295V94.2374H377.388Z" fill="#ED7000"/>
</g>
</svg>
